<?xml version="1.0" encoding="UTF-8" standalone="no"?> <!-- Created with Vectornator for iOS (http://vectornator.io/) --><!DOCTYPE svg PUBLIC "-//W3C//DTD SVG 1.1//EN" "http://www.w3.org/Graphics/SVG/1.1/DTD/svg11.dtd">
<svg height="100%" style="fill-rule:evenodd;clip-rule:evenodd;stroke-linecap:round;stroke-linejoin:round;" xmlns:xlink="http://www.w3.org/1999/xlink" xmlns="http://www.w3.org/2000/svg" xml:space="preserve" width="100%" xmlns:vectornator="http://vectornator.io" version="1.1" viewBox="0 0 300 70">
<metadata>
<vectornator:setting key="DisplayWhiteBackground" value="0"/>
<vectornator:setting key="RulersVisible" value="1"/>
<vectornator:setting key="SnapToEdges" value="0"/>
<vectornator:setting key="Units" value="Pixels"/>
<vectornator:setting key="DynamicGuides" value="0"/>
<vectornator:setting key="SnapToPoints" value="0"/>
<vectornator:setting key="CMYKEnabledKey" value="0"/>
<vectornator:setting key="SnapToGrid" value="0"/>
<vectornator:setting key="SnapToGuides" value="1"/>
<vectornator:setting key="GridSpacing" value="36"/>
</metadata>
<defs/>
<g id="Layer 1" vectornator:layerName="Layer 1">
<g opacity="1">
<path d="M23.1064+47.1126L28.3954+19.8476L31.4294+19.8476L37.2924+47.1126L42.5814+19.8476L44.9184+19.8476L38.4404+50.3926L33.8894+50.3926L28.9694+28.1706L24.2544+50.3926L19.7034+50.3926L13.1844+21.9796C12.1457+21.9796+11.2711+22.1641+10.5604+22.5331C9.84975+22.9021+9.27575+23.3941+8.83842+24.0091C8.40108+24.6241+8.07992+25.3211+7.87492+26.1001C7.66992+26.8791+7.56742+27.6786+7.56742+28.4986C7.56742+29.6739+7.73142+30.7262+8.05942+31.6556C8.38742+32.5849+8.86575+33.4459+9.49442+34.2386C8.94775+34.2386+8.40108+34.1566+7.85442+33.9926C7.30775+33.8286+6.81575+33.5416+6.37842+33.1316C5.94108+32.7216+5.58575+32.1681+5.31242+31.4711C5.03908+30.7741+4.90242+29.8926+4.90242+28.8266C4.90242+27.5966+5.13475+26.4212+5.59942+25.3006C6.06408+24.1799+6.74742+23.2027+7.64942+22.3691C8.55142+21.5354+9.65842+20.8726+10.9704+20.3806C12.2824+19.8886+13.7857+19.6426+15.4804+19.6426C15.7811+19.6426+16.0749+19.6562+16.3619+19.6836C16.6489+19.7109+16.9427+19.7519+17.2434+19.8066L23.1064+47.1126Z" opacity="1" fill="#005f85"/>
<path d="M60.6214+29.8926L60.6214+43.8326C60.6214+44.1059+60.6351+44.4476+60.6624+44.8576C60.6897+45.2676+60.7649+45.6707+60.8879+46.0671C61.0109+46.4634+61.1954+46.8051+61.4414+47.0921C61.6874+47.3791+62.0291+47.5226+62.4664+47.5226C63.8057+47.5226+64.7897+46.0329+65.4184+43.0536L66.9354+43.0536C66.6347+44.7756+66.2521+46.1354+65.7874+47.1331C65.3227+48.1307+64.8307+48.8892+64.3114+49.4086C63.7921+49.9279+63.2591+50.2627+62.7124+50.4131C62.1657+50.5634+61.6737+50.6386+61.2364+50.6386C60.6077+50.6386+60.0679+50.5292+59.6169+50.3106C59.1659+50.0919+58.7832+49.8049+58.4689+49.4496C58.1546+49.0942+57.9017+48.6842+57.7104+48.2196C57.5191+47.7549+57.3687+47.2629+57.2594+46.7436C56.8494+47.8096+56.1866+48.7252+55.2709+49.4906C54.3552+50.2559+53.2414+50.6386+51.9294+50.6386C51.1094+50.6386+50.2826+50.4746+49.4489+50.1466C48.6152+49.8186+47.8636+49.2787+47.1939+48.5271C46.5242+47.7754+45.9776+46.8051+45.5539+45.6161C45.1302+44.4271+44.9184+42.9716+44.9184+41.2496C44.9184+39.9922+45.0619+38.6802+45.3489+37.3136C45.6359+35.9469+46.0937+34.7032+46.7224+33.5826C47.3511+32.4619+48.1574+31.5326+49.1414+30.7946C50.1254+30.0566+51.3144+29.6876+52.7084+29.6876C53.0364+29.6876+53.3849+29.7217+53.7539+29.7901C54.1229+29.8584+54.4782+29.9746+54.8199+30.1386C55.1616+30.3026+55.4827+30.5281+55.7834+30.8151C56.0841+31.1021+56.3301+31.4506+56.5214+31.8606L56.5214+29.8926L60.6214+29.8926ZM52.9544+47.5226C53.3644+47.5226+53.7812+47.4064+54.2049+47.1741C54.6286+46.9417+55.0112+46.6274+55.3529+46.2311C55.6946+45.8347+55.9747+45.3632+56.1934+44.8166C56.4121+44.2699+56.5214+43.6822+56.5214+43.0536L56.5214+33.7056C56.3301+33.2682+56.0362+32.8651+55.6399+32.4961C55.2436+32.1271+54.7311+31.9426+54.1024+31.9426C53.2277+31.9426+52.4761+32.2364+51.8474+32.8241C51.2187+33.4117+50.7131+34.1497+50.3304+35.0381C49.9477+35.9264+49.6676+36.8967+49.4899+37.9491C49.3122+39.0014+49.2234+40.0059+49.2234+40.9626C49.2234+43.3132+49.5446+44.9942+50.1869+46.0056C50.8292+47.0169+51.7517+47.5226+52.9544+47.5226Z" opacity="1" fill="#005f85"/>
<path d="M69.4774+29.8926L69.4774+33.0086C69.8874+32.2706+70.3042+31.6761+70.7279+31.2251C71.1516+30.7741+71.5821+30.4392+72.0194+30.2206C72.4567+30.0019+72.8736+29.8584+73.2699+29.7901C73.6662+29.7217+74.0421+29.6876+74.3974+29.6876C75.6274+29.6876+76.6182+29.9199+77.3699+30.3846C78.1216+30.8492+78.6887+31.4437+79.0714+32.1681C79.4541+32.8924+79.7069+33.6851+79.8299+34.5461C79.9529+35.4071+80.0144+36.2339+80.0144+37.0266C80.0144+37.5186+80.0007+38.0584+79.9734+38.6461C79.9461+39.2337+79.9187+39.8351+79.8914+40.4501C79.8641+41.0651+79.8367+41.6801+79.8094+42.2951C79.7821+42.9101+79.7684+43.4772+79.7684+43.9966C79.7684+44.2152+79.7821+44.5227+79.8094+44.9191C79.8367+45.3154+79.9051+45.7049+80.0144+46.0876C80.1237+46.4702+80.3014+46.8051+80.5474+47.0921C80.7934+47.3791+81.1487+47.5226+81.6134+47.5226C82.2421+47.5226+82.8092+47.1672+83.3149+46.4566C83.8206+45.7459+84.2374+44.6116+84.5654+43.0536L86.0824+43.0536C85.7817+44.7756+85.3991+46.1354+84.9344+47.1331C84.4697+48.1307+83.9777+48.8892+83.4584+49.4086C82.9391+49.9279+82.4197+50.2627+81.9004+50.4131C81.3811+50.5634+80.9027+50.6386+80.4654+50.6386C79.5907+50.6386+78.8527+50.4677+78.2514+50.1261C77.6501+49.7844+77.1581+49.3266+76.7754+48.7526C76.3927+48.1786+76.1126+47.5089+75.9349+46.7436C75.7572+45.9782+75.6684+45.1856+75.6684+44.3656C75.6684+44.1196+75.6752+43.6617+75.6889+42.9921C75.7026+42.3224+75.7162+41.6049+75.7299+40.8396C75.7436+40.0742+75.7572+39.3499+75.7709+38.6666C75.7846+37.9832+75.7914+37.5049+75.7914+37.2316C75.7914+36.3569+75.7231+35.6326+75.5864+35.0586C75.4497+34.4846+75.2584+34.0336+75.0124+33.7056C74.7664+33.3776+74.4862+33.1452+74.1719+33.0086C73.8576+32.8719+73.5227+32.8036+73.1674+32.8036C72.3201+32.8036+71.5889+33.1452+70.9739+33.8286C70.3589+34.5119+69.8601+35.6599+69.4774+37.2726L69.4774+50.3926L65.3774+50.3926L65.3774+29.8926L69.4774+29.8926Z" opacity="1" fill="#005f85"/>
<path d="M99.6534+21.6926L99.6534+43.8326C99.6534+44.1059+99.6671+44.4476+99.6944+44.8576C99.7217+45.2676+99.7969+45.6707+99.9199+46.0671C100.043+46.4634+100.227+46.8051+100.473+47.0921C100.719+47.3791+101.061+47.5226+101.498+47.5226C102.838+47.5226+103.822+46.0329+104.45+43.0536L105.967+43.0536C105.667+44.7756+105.284+46.1354+104.819+47.1331C104.355+48.1307+103.863+48.8892+103.343+49.4086C102.824+49.9279+102.291+50.2627+101.744+50.4131C101.198+50.5634+100.706+50.6386+100.268+50.6386C99.6397+50.6386+99.0999+50.5292+98.6489+50.3106C98.1979+50.0919+97.8152+49.8049+97.5009+49.4496C97.1866+49.0942+96.9337+48.6842+96.7424+48.2196C96.5511+47.7549+96.4007+47.2629+96.2914+46.7436C95.8814+47.8096+95.2186+48.7252+94.3029+49.4906C93.3872+50.2559+92.2734+50.6386+90.9614+50.6386C90.1414+50.6386+89.3146+50.4746+88.4809+50.1466C87.6472+49.8186+86.8956+49.2787+86.2259+48.5271C85.5562+47.7754+85.0096+46.8051+84.5859+45.6161C84.1622+44.4271+83.9504+42.9716+83.9504+41.2496C83.9504+39.9922+84.0939+38.6802+84.3809+37.3136C84.6679+35.9469+85.1257+34.7032+85.7544+33.5826C86.3831+32.4619+87.1894+31.5326+88.1734+30.7946C89.1574+30.0566+90.3464+29.6876+91.7404+29.6876C92.0684+29.6876+92.4169+29.7217+92.7859+29.7901C93.1549+29.8584+93.5102+29.9746+93.8519+30.1386C94.1936+30.3026+94.5147+30.5281+94.8154+30.8151C95.1161+31.1021+95.3621+31.4506+95.5534+31.8606L95.5534+22.2666L99.6534+21.6926ZM91.9864+47.5226C92.3964+47.5226+92.8132+47.4064+93.2369+47.1741C93.6606+46.9417+94.0432+46.6274+94.3849+46.2311C94.7266+45.8347+95.0067+45.3632+95.2254+44.8166C95.4441+44.2699+95.5534+43.6822+95.5534+43.0536L95.5534+33.7056C95.3621+33.2682+95.0682+32.8651+94.6719+32.4961C94.2756+32.1271+93.7631+31.9426+93.1344+31.9426C92.2597+31.9426+91.5081+32.2364+90.8794+32.8241C90.2507+33.4117+89.7451+34.1497+89.3624+35.0381C88.9797+35.9264+88.6996+36.8967+88.5219+37.9491C88.3442+39.0014+88.2554+40.0059+88.2554+40.9626C88.2554+43.3132+88.5766+44.9942+89.2189+46.0056C89.8612+47.0169+90.7837+47.5226+91.9864+47.5226Z" opacity="1" fill="#005f85"/>
<path d="M119.538+29.8926L119.538+43.8326C119.538+44.1606+119.552+44.5364+119.579+44.9601C119.607+45.3837+119.682+45.7869+119.805+46.1696C119.928+46.5522+120.119+46.8734+120.379+47.1331C120.639+47.3927+121.014+47.5226+121.506+47.5226C121.725+47.5226+121.964+47.4952+122.224+47.4406C122.484+47.3859+122.695+47.3312+122.859+47.2766C122.887+47.4132+122.907+47.5362+122.921+47.6456C122.935+47.7549+122.941+47.8779+122.941+48.0146C122.941+48.8346+122.627+49.4769+121.998+49.9416C121.37+50.4062+120.659+50.6386+119.866+50.6386C119.019+50.6386+118.254+50.3447+117.57+49.7571C116.887+49.1694+116.422+48.1786+116.176+46.7846C115.766+47.8506+115.097+48.7594+114.167+49.5111C113.238+50.2627+112.117+50.6386+110.805+50.6386C109.985+50.6386+109.159+50.4677+108.325+50.1261C107.491+49.7844+106.746+49.2446+106.09+48.5066C105.434+47.7686+104.895+46.8119+104.471+45.6366C104.047+44.4612+103.835+43.0399+103.835+41.3726C103.835+40.0879+103.979+38.7554+104.266+37.3751C104.553+35.9947+105.004+34.7374+105.619+33.6031C106.234+32.4687+107.033+31.5326+108.017+30.7946C109.001+30.0566+110.177+29.6876+111.543+29.6876C112.254+29.6876+112.985+29.8379+113.737+30.1386C114.489+30.4392+115.056+31.0132+115.438+31.8606L115.438+29.8926L119.538+29.8926ZM111.666+47.5226C112.186+47.5226+112.678+47.3996+113.142+47.1536C113.607+46.9076+114.01+46.5796+114.352+46.1696C114.694+45.7596+114.96+45.2881+115.151+44.7551C115.343+44.2221+115.438+43.6549+115.438+43.0536L115.438+33.7056C115.247+33.2409+114.96+32.8309+114.577+32.4756C114.195+32.1202+113.648+31.9426+112.937+31.9426C112.063+31.9426+111.325+32.2364+110.723+32.8241C110.122+33.4117+109.63+34.1566+109.247+35.0586C108.865+35.9606+108.585+36.9651+108.407+38.0721C108.229+39.1791+108.14+40.2382+108.14+41.2496C108.14+43.4636+108.482+45.0626+109.165+46.0466C109.849+47.0306+110.682+47.5226+111.666+47.5226Z" opacity="1" fill="#005f85"/>
<path d="M150.78+47.1126L156.069+19.8476L159.103+19.8476L164.966+47.1126L170.255+19.8476L172.592+19.8476L166.114+50.3926L161.563+50.3926L156.643+28.1706L151.928+50.3926L147.377+50.3926L140.858+21.9796C139.82+21.9796+138.945+22.1641+138.234+22.5331C137.524+22.9021+136.95+23.3941+136.512+24.0091C136.075+24.6241+135.754+25.3211+135.549+26.1001C135.344+26.8791+135.241+27.6786+135.241+28.4986C135.241+29.6739+135.405+30.7262+135.733+31.6556C136.061+32.5849+136.54+33.4459+137.168+34.2386C136.622+34.2386+136.075+34.1566+135.528+33.9926C134.982+33.8286+134.49+33.5416+134.052+33.1316C133.615+32.7216+133.26+32.1681+132.986+31.4711C132.713+30.7741+132.576+29.8926+132.576+28.8266C132.576+27.5966+132.809+26.4212+133.273+25.3006C133.738+24.1799+134.421+23.2027+135.323+22.3691C136.225+21.5354+137.332+20.8726+138.644+20.3806C139.956+19.8886+141.46+19.6426+143.154+19.6426C143.455+19.6426+143.749+19.6562+144.036+19.6836C144.323+19.7109+144.617+19.7519+144.917+19.8066L150.78+47.1126Z" opacity="1" fill="#005f85"/>
<path d="M177.758+29.8926L177.758+33.3366C178.086+32.8446+178.408+32.3799+178.722+31.9426C179.036+31.5052+179.385+31.1226+179.767+30.7946C180.15+30.4666+180.574+30.2001+181.038+29.9951C181.503+29.7901+182.022+29.6876+182.596+29.6876C183.526+29.6876+184.209+29.9267+184.646+30.4051C185.084+30.8834+185.302+31.4642+185.302+32.1476C185.302+32.5576+185.234+32.8992+185.097+33.1726C184.961+33.4459+184.797+33.6646+184.605+33.8286C184.414+33.9926+184.209+34.1087+183.99+34.1771C183.772+34.2454+183.58+34.2796+183.416+34.2796C183.17+34.2796+182.972+34.2249+182.822+34.1156C182.672+34.0062+182.521+33.8901+182.371+33.7671C182.221+33.6441+182.05+33.5279+181.858+33.4186C181.667+33.3092+181.421+33.2546+181.12+33.2546C180.492+33.2546+179.89+33.4732+179.316+33.9106C178.742+34.3479+178.223+34.8126+177.758+35.3046L177.758+50.3926L173.658+50.3926L173.658+29.8926L177.758+29.8926Z" opacity="1" fill="#005f85"/>
<path d="M191.575+29.8926L191.575+43.8326C191.575+44.1059+191.589+44.4476+191.616+44.8576C191.644+45.2676+191.719+45.6707+191.842+46.0671C191.965+46.4634+192.149+46.8051+192.395+47.0921C192.641+47.3791+192.983+47.5226+193.42+47.5226C194.76+47.5226+195.744+46.0329+196.372+43.0536L197.889+43.0536C197.589+44.7756+197.206+46.1354+196.741+47.1331C196.277+48.1307+195.785+48.8892+195.265+49.4086C194.746+49.9279+194.213+50.2627+193.666+50.4131C193.12+50.5634+192.628+50.6386+192.19+50.6386C191.234+50.6386+190.455+50.4541+189.853+50.0851C189.252+49.7161+188.774+49.2446+188.418+48.6706C188.063+48.0966+187.817+47.4542+187.68+46.7436C187.544+46.0329+187.475+45.3496+187.475+44.6936L187.475+29.8926L191.575+29.8926ZM186.737+23.9886C186.737+23.2506+186.997+22.6082+187.516+22.0616C188.036+21.5149+188.678+21.2416+189.443+21.2416C190.181+21.2416+190.824+21.5149+191.37+22.0616C191.917+22.6082+192.19+23.2506+192.19+23.9886C192.19+24.7539+191.917+25.3962+191.37+25.9156C190.824+26.4349+190.181+26.6946+189.443+26.6946C188.678+26.6946+188.036+26.4349+187.516+25.9156C186.997+25.3962+186.737+24.7539+186.737+23.9886Z" opacity="1" fill="#005f85"/>
<path d="M200.472+23.6606L200.472+29.8926L203.629+29.8926L203.629+31.3276L200.472+31.3276L200.472+43.8326C200.472+44.1606+200.486+44.5364+200.513+44.9601C200.541+45.3837+200.616+45.7869+200.739+46.1696C200.862+46.5522+201.053+46.8734+201.313+47.1331C201.573+47.3927+201.935+47.5226+202.399+47.5226C203.137+47.5226+203.841+47.1536+204.511+46.4156C205.181+45.6776+205.707+44.5569+206.089+43.0536L207.606+43.0536C207.142+44.7756+206.643+46.1354+206.11+47.1331C205.577+48.1307+205.023+48.8892+204.449+49.4086C203.875+49.9279+203.308+50.2627+202.748+50.4131C202.188+50.5634+201.675+50.6386+201.21+50.6386C200.226+50.6386+199.42+50.4541+198.791+50.0851C198.163+49.7161+197.671+49.2446+197.315+48.6706C196.96+48.0966+196.714+47.4611+196.577+46.7641C196.441+46.0671+196.372+45.3769+196.372+44.6936L196.372+31.3276L194.978+31.3276L194.978+29.8926L196.372+29.8926L196.372+24.2346L200.472+23.6606Z" opacity="1" fill="#005f85"/>
<path d="M218.84+35.0176C218.84+36.9309+218.055+38.5299+216.483+39.8146C214.911+41.0992+212.731+41.8919+209.943+42.1926C210.053+43.2859+210.251+44.1742+210.538+44.8576C210.825+45.5409+211.173+46.0807+211.583+46.4771C211.993+46.8734+212.465+47.1467+212.998+47.2971C213.531+47.4474+214.084+47.5226+214.658+47.5226C215.97+47.5226+217.2+47.1809+218.348+46.4976C219.496+45.8142+220.426+44.6662+221.136+43.0536L222.448+43.0536C222.093+44.0649+221.601+45.0284+220.972+45.9441C220.344+46.8597+219.606+47.6661+218.758+48.3631C217.911+49.0601+216.995+49.6136+216.011+50.0236C215.027+50.4336+214.016+50.6386+212.977+50.6386C212.021+50.6386+211.098+50.4746+210.21+50.1466C209.322+49.8186+208.536+49.2787+207.852+48.5271C207.169+47.7754+206.616+46.7982+206.192+45.5956C205.768+44.3929+205.556+42.9169+205.556+41.1676C205.556+40.0196+205.686+38.7759+205.946+37.4366C206.206+36.0972+206.643+34.8536+207.258+33.7056C207.873+32.5576+208.679+31.6009+209.677+30.8356C210.675+30.0702+211.911+29.6876+213.387+29.6876C214.071+29.6876+214.734+29.7627+215.376+29.9131C216.018+30.0634+216.599+30.3367+217.118+30.7331C217.638+31.1294+218.055+31.6692+218.369+32.3526C218.683+33.0359+218.84+33.9242+218.84+35.0176ZM209.902+40.5936C211.843+40.2929+213.381+39.6096+214.515+38.5436C215.649+37.4776+216.216+36.1656+216.216+34.6076C216.216+33.5689+216.039+32.8241+215.683+32.3731C215.328+31.9221+214.822+31.6966+214.166+31.6966C213.456+31.6966+212.834+31.9699+212.301+32.5166C211.768+33.0632+211.324+33.7671+210.968+34.6281C210.613+35.4891+210.347+36.4457+210.169+37.4981C209.991+38.5504+209.902+39.5822+209.902+40.5936Z" opacity="1" fill="#005f85"/>
<path d="M229.254+28.6216C229.91+31.2456+230.457+33.3844+230.894+35.0381C231.332+36.6917+231.68+38.0857+231.94+39.2201C232.2+40.3544+232.384+41.3589+232.493+42.2336C232.603+43.1082+232.657+44.0786+232.657+45.1446C232.657+46.1559+232.439+47.0101+232.001+47.7071C231.564+48.4041+231.017+48.9712+230.361+49.4086C229.705+49.8459+229.008+50.1602+228.27+50.3516C227.532+50.5429+226.876+50.6386+226.302+50.6386C225.1+50.6386+224.109+50.4472+223.33+50.0646C222.551+49.6819+221.929+49.1967+221.464+48.6091C221+48.0214+220.672+47.3654+220.48+46.6411C220.289+45.9167+220.193+45.2266+220.193+44.5706C220.193+43.8599+220.337+43.2381+220.624+42.7051C220.911+42.1721+221.259+41.7962+221.669+41.5776C222.38+39.5276+223.077+37.4981+223.76+35.4891C224.444+33.4801+224.895+31.4642+225.113+29.4416L229.254+28.6216ZM228.311+44.6936C228.311+43.8462+228.264+43.0946+228.168+42.4386C228.072+41.7826+227.929+41.0582+227.737+40.2656C227.546+39.4729+227.307+38.5094+227.02+37.3751C226.733+36.2407+226.398+34.7852+226.015+33.0086C225.851+34.5392+225.517+36.0016+225.011+37.3956C224.505+38.7896+224.047+40.2246+223.637+41.7006C223.883+41.8646+224.095+42.0901+224.273+42.3771C224.451+42.6641+224.539+43.0399+224.539+43.5046C224.539+44.0239+224.403+44.4202+224.129+44.6936C223.856+44.9669+223.555+45.1036+223.227+45.1036C222.79+45.1036+222.421+44.9122+222.12+44.5296C222.339+45.4862+222.722+46.2311+223.268+46.7641C223.815+47.2971+224.539+47.5636+225.441+47.5636C226.316+47.5636+227.013+47.3381+227.532+46.8871C228.052+46.4361+228.311+45.7049+228.311+44.6936Z" opacity="1" fill="#005f85"/>
<path d="M257.134+20.2576L257.134+49.5726C258.009+49.7639+258.863+50.0646+259.697+50.4746C260.531+50.8846+261.385+51.2946+262.259+51.7046C263.134+52.1146+264.057+52.4699+265.027+52.7706C265.997+53.0712+267.056+53.2216+268.204+53.2216C269.161+53.2216+270.213+52.9482+271.361+52.4016C271.443+52.7842+271.484+53.1532+271.484+53.5086C271.484+54.0826+271.382+54.6224+271.177+55.1281C270.972+55.6337+270.671+56.0779+270.275+56.4606C269.879+56.8432+269.4+57.1507+268.84+57.3831C268.28+57.6154+267.658+57.7316+266.974+57.7316C265.908+57.7316+264.856+57.3967+263.817+56.7271C262.779+56.0574+261.726+55.3194+260.66+54.5131C259.594+53.7067+258.481+52.9687+257.319+52.2991C256.157+51.6294+254.92+51.2946+253.608+51.2946C253.444+51.2946+253.287+51.2946+253.137+51.2946C252.987+51.2946+252.829+51.3082+252.665+51.3356L252.665+22.4716C250.834+22.9909+249.385+23.8792+248.319+25.1366C247.253+26.3939+246.72+27.9656+246.72+29.8516C246.72+30.5896+246.775+31.2114+246.884+31.7171C246.994+32.2227+247.13+32.6601+247.294+33.0291C247.458+33.3981+247.657+33.7124+247.889+33.9721C248.121+34.2317+248.36+34.4709+248.606+34.6896C246.966+34.6896+245.668+34.3137+244.711+33.5621C243.755+32.8104+243.276+31.5326+243.276+29.7286C243.276+28.4166+243.618+27.1797+244.301+26.0181C244.985+24.8564+245.894+23.8314+247.028+22.9431C248.162+22.0547+249.461+21.3509+250.923+20.8316C252.385+20.3122+253.895+20.0526+255.453+20.0526C255.754+20.0526+256.048+20.0594+256.335+20.0731C256.622+20.0867+256.902+20.1072+257.175+20.1346L257.134+20.2576Z" opacity="1" fill="#005f85"/>
<path d="M267.138+29.8926L267.138+43.8326C267.138+44.1059+267.152+44.4476+267.179+44.8576C267.207+45.2676+267.282+45.6707+267.405+46.0671C267.528+46.4634+267.712+46.8051+267.958+47.0921C268.204+47.3791+268.546+47.5226+268.983+47.5226C270.323+47.5226+271.307+46.0329+271.935+43.0536L273.452+43.0536C273.152+44.7756+272.769+46.1354+272.304+47.1331C271.84+48.1307+271.348+48.8892+270.828+49.4086C270.309+49.9279+269.776+50.2627+269.229+50.4131C268.683+50.5634+268.191+50.6386+267.753+50.6386C266.797+50.6386+266.018+50.4541+265.416+50.0851C264.815+49.7161+264.337+49.2446+263.981+48.6706C263.626+48.0966+263.38+47.4542+263.243+46.7436C263.107+46.0329+263.038+45.3496+263.038+44.6936L263.038+29.8926L267.138+29.8926ZM262.3+23.9886C262.3+23.2506+262.56+22.6082+263.079+22.0616C263.599+21.5149+264.241+21.2416+265.006+21.2416C265.744+21.2416+266.387+21.5149+266.933+22.0616C267.48+22.6082+267.753+23.2506+267.753+23.9886C267.753+24.7539+267.48+25.3962+266.933+25.9156C266.387+26.4349+265.744+26.6946+265.006+26.6946C264.241+26.6946+263.599+26.4349+263.079+25.9156C262.56+25.3962+262.3+24.7539+262.3+23.9886Z" opacity="1" fill="#005f85"/>
<path d="M275.994+29.8926L279.315+29.8926L279.315+31.3276L275.994+31.3276L275.994+53.6726C275.994+55.1212+275.851+56.2966+275.564+57.1986C275.277+58.1006+274.901+58.8112+274.436+59.3306C273.972+59.8499+273.432+60.1984+272.817+60.3761C272.202+60.5537+271.553+60.6426+270.869+60.6426C269.393+60.6426+268.307+60.3009+267.61+59.6176C266.913+58.9342+266.564+57.9502+266.564+56.6656C266.564+55.9822+266.722+55.3536+267.036+54.7796C267.35+54.2056+267.76+53.6794+268.266+53.2011C268.772+52.7227+269.339+52.2991+269.967+51.9301C270.596+51.5611+271.238+51.2399+271.894+50.9666L271.894+26.7766C271.894+24.3986+272.455+22.6151+273.575+21.4261C274.696+20.2371+276.131+19.6426+277.88+19.6426C278.7+19.6426+279.452+19.7656+280.135+20.0116C280.819+20.2576+281.42+20.6402+281.939+21.1596C282.459+21.6789+282.862+22.3212+283.149+23.0866C283.436+23.8519+283.579+24.7539+283.579+25.7926L281.98+25.7926C281.816+24.6992+281.523+23.8382+281.099+23.2096C280.675+22.5809+279.971+22.2666+278.987+22.2666C278.331+22.2666+277.812+22.4101+277.429+22.6971C277.047+22.9841+276.746+23.3736+276.527+23.8656C276.309+24.3576+276.165+24.9521+276.097+25.6491C276.029+26.3461+275.994+27.1046+275.994+27.9246L275.994+29.8926ZM270.049+58.5106C270.842+58.5106+271.348+58.0869+271.566+57.2396C271.785+56.3922+271.894+55.2306+271.894+53.7546L271.894+52.4836C270.664+53.0849+269.735+53.7409+269.106+54.4516C268.478+55.1622+268.163+55.8592+268.163+56.5426C268.163+57.0892+268.341+57.5539+268.696+57.9366C269.052+58.3192+269.503+58.5106+270.049+58.5106Z" opacity="1" fill="#005f85"/>
<path d="M294.526+35.0176C294.526+36.9309+293.741+38.5299+292.169+39.8146C290.597+41.0992+288.417+41.8919+285.629+42.1926C285.739+43.2859+285.937+44.1742+286.224+44.8576C286.511+45.5409+286.859+46.0807+287.269+46.4771C287.679+46.8734+288.151+47.1467+288.684+47.2971C289.217+47.4474+289.77+47.5226+290.344+47.5226C291.219+47.5226+292.046+47.3722+292.825+47.0716C293.604+46.7709+294.253+46.2516+294.772+45.5136C294.8+45.7049+294.82+45.8894+294.834+46.0671C294.848+46.2447+294.854+46.4019+294.854+46.5386C294.854+47.1672+294.697+47.7276+294.383+48.2196C294.069+48.7116+293.645+49.1421+293.112+49.5111C292.579+49.8801+291.964+50.1602+291.267+50.3516C290.57+50.5429+289.839+50.6386+289.073+50.6386C288.144+50.6386+287.215+50.4677+286.285+50.1261C285.356+49.7844+284.516+49.2377+283.764+48.4861C283.012+47.7344+282.404+46.7572+281.939+45.5546C281.475+44.3519+281.242+42.8896+281.242+41.1676C281.242+40.0196+281.372+38.7759+281.632+37.4366C281.892+36.0972+282.329+34.8536+282.944+33.7056C283.559+32.5576+284.365+31.6009+285.363+30.8356C286.361+30.0702+287.597+29.6876+289.073+29.6876C289.757+29.6876+290.42+29.7627+291.062+29.9131C291.704+30.0634+292.285+30.3367+292.804+30.7331C293.324+31.1294+293.741+31.6692+294.055+32.3526C294.369+33.0359+294.526+33.9242+294.526+35.0176ZM285.588+40.5936C287.529+40.2929+289.067+39.6096+290.201+38.5436C291.335+37.4776+291.902+36.1656+291.902+34.6076C291.902+33.5689+291.725+32.8241+291.369+32.3731C291.014+31.9221+290.508+31.6966+289.852+31.6966C289.142+31.6966+288.52+31.9699+287.987+32.5166C287.454+33.0632+287.01+33.7671+286.654+34.6281C286.299+35.4891+286.033+36.4457+285.855+37.4981C285.677+38.5504+285.588+39.5822+285.588+40.5936Z" opacity="1" fill="#005f85"/>
</g>
</g>
</svg>
