<svg height="70pt" viewBox="0 0 300 70" width="300pt" xmlns="http://www.w3.org/2000/svg"><g fill="#005f85" fill-rule="evenodd"><path d="m23.105469 47.113281 5.289062-27.265625h3.035157l5.863281 27.265625 5.289062-27.265625h2.335938l-6.476563 30.546875h-4.550781l-4.921875-22.222656-4.714844 22.222656h-4.550781l-6.519531-28.414062c-1.039063 0-1.914063.183593-2.625.550781-.707032.371094-1.28125.863281-1.71875 1.476562-.4375.617188-.761719 1.3125-.964844 2.09375-.207031.777344-.308594 1.578126-.308594 2.398438 0 1.175781.164063 2.226562.492188 3.15625s.808594 1.789062 1.4375 2.582031c-.546875 0-1.09375-.082031-1.640625-.246093-.546875-.164063-1.039063-.449219-1.476563-.859376-.4375-.410156-.792968-.964843-1.066406-1.660156-.273438-.699218-.410156-1.578125-.410156-2.644531 0-1.230469.230468-2.40625.695312-3.527344.464844-1.121093 1.148438-2.097656 2.050782-2.933593.902343-.832032 2.011718-1.496094 3.320312-1.988282 1.3125-.492187 2.816406-.734375 4.511719-.734375.300781 0 .59375.011719.882812.039063.285157.027344.578125.066406.878907.121094zm0 0"/><path d="m60.621094 29.894531v13.9375c0 .273438.015625.617188.042968 1.027344.027344.410156.101563.8125.222657 1.207031.125.398438.308593.738282.554687 1.027344.246094.285156.585938.429688 1.023438.429688 1.339844 0 2.324218-1.492188 2.953125-4.46875h1.515625c-.300782 1.722656-.679688 3.082031-1.144532 4.078124-.464843.996094-.957031 1.757813-1.476562 2.277344-.519531.519532-1.054688.851563-1.601562 1.003906-.546876.148438-1.039063.222657-1.472657.222657-.628906 0-1.171875-.109375-1.621093-.324219-.453126-.21875-.835938-.507812-1.148438-.863281s-.566406-.765625-.757812-1.230469c-.191407-.464844-.34375-.957031-.453126-1.476562-.410156 1.066406-1.070312 1.984374-1.988281 2.75-.914062.765624-2.027343 1.144531-3.339843 1.144531-.820313 0-1.648438-.164063-2.480469-.488281-.835938-.328126-1.585938-.871094-2.253907-1.621094-.671874-.75-1.21875-1.722656-1.640624-2.910156-.425782-1.191407-.636719-2.644532-.636719-4.367188 0-1.257812.144531-2.570312.429687-3.9375.289063-1.367188.746094-2.609375 1.375-3.730469.628906-1.121093 1.433594-2.050781 2.417969-2.789062s2.171875-1.105469 3.566406-1.105469c.328125 0 .679688.035156 1.046875.101562.367188.070313.722656.183594 1.066406.347657.339844.164062.664063.390625.964844.679687.300782.285156.546875.632813.734375 1.042969v-1.964844zm-7.667969 17.628907c.410156 0 .828125-.117188 1.25-.347657.425781-.234375.808594-.546875 1.148437-.945312.34375-.394531.625-.867188.84375-1.414063.214844-.546875.324219-1.132812.324219-1.761718v-9.347657c-.1875-.4375-.484375-.84375-.878906-1.210937-.398437-.367188-.910156-.554688-1.539063-.554688-.875 0-1.625.296875-2.253906.882813-.628906.585937-1.132812 1.324219-1.515625 2.214843-.382812.886719-.664062 1.859376-.84375 2.910157-.175781 1.050781-.265625 2.058593-.265625 3.011719 0 2.351562.320313 4.035156.964844 5.042968.640625 1.011719 1.5625 1.519532 2.765625 1.519532zm0 0"/><path d="m69.476562 29.894531v3.113281c.410157-.738281.828126-1.332031 1.25-1.78125.425782-.453124.855469-.789062 1.292969-1.007812s.855469-.359375 1.25-.429688c.398438-.066406.773438-.101562 1.128907-.101562 1.230468 0 2.21875.230469 2.972656.695312.75.464844 1.316406 1.0625 1.699218 1.785157.382813.722656.636719 1.515625.757813 2.378906.125.859375.1875 1.6875.1875 2.480469 0 .492187-.015625 1.03125-.042969 1.617187-.027344.589844-.054687 1.191407-.082031 1.804688-.027344.617187-.054687 1.230469-.082031 1.847656-.027344.613281-.039063 1.179687-.039063 1.699219 0 .21875.011719.527344.039063.921875.027344.398437.097656.785156.207031 1.167969.109375.382812.285156.71875.53125 1.007812.246094.285156.601563.429688 1.066406.429688.628907 0 1.195313-.355469 1.703125-1.066407.503906-.710937.921875-1.84375 1.25-3.402343h1.515625c-.300781 1.722656-.683593 3.082031-1.148437 4.078124-.464844.996094-.957032 1.757813-1.476563 2.277344-.519531.519532-1.039062.851563-1.554687 1.003906-.519532.148438-1 .222657-1.4375.222657-.875 0-1.613282-.167969-2.214844-.511719-.601562-.339844-1.09375-.796875-1.472656-1.371094-.382813-.574218-.664063-1.246094-.84375-2.011718-.175782-.765626-.265625-1.554688-.265625-2.375 0-.246094.007812-.707032.019531-1.375.015625-.667969.027344-1.386719.042969-2.152344.011719-.765625.027343-1.488282.039062-2.171875.015625-.683594.023438-1.164063.023438-1.4375 0-.875-.070313-1.597657-.207031-2.171875-.136719-.574219-.328126-1.023438-.574219-1.351563-.246094-.328125-.527344-.5625-.839844-.699219-.3125-.136718-.648437-.203124-1.003906-.203124-.847657 0-1.578125.339843-2.195313 1.023437-.613281.683594-1.113281 1.832031-1.496094 3.445313v13.121093h-4.097656v-20.5zm0 0"/><path d="m99.652344 21.691406v22.140625c0 .273438.015625.617188.042968 1.027344.027344.410156.101563.8125.222657 1.207031.125.398438.308593.738282.554687 1.027344.246094.285156.589844.429688 1.023438.429688 1.34375 0 2.324218-1.492188 2.953125-4.46875h1.519531c-.300781 1.722656-.683594 3.082031-1.148438 4.078124-.464843.996094-.957031 1.757813-1.476562 2.277344-.519531.519532-1.054688.851563-1.601562 1.003906-.542969.148438-1.035157.222657-1.472657.222657-.628906 0-1.167969-.109375-1.621093-.324219-.449219-.21875-.832032-.507812-1.148438-.863281-.3125-.355469-.566406-.765625-.757812-1.230469-.191407-.464844-.339844-.957031-.449219-1.476562-.410157 1.066406-1.074219 1.984374-1.988281 2.75-.917969.765624-2.03125 1.144531-3.34375 1.144531-.820313 0-1.644532-.164063-2.480469-.488281-.832031-.328126-1.585938-.871094-2.253907-1.621094-.671874-.75-1.21875-1.722656-1.640624-2.910156-.421876-1.191407-.636719-2.644532-.636719-4.367188 0-1.257812.144531-2.570312.433593-3.9375.285157-1.367188.742188-2.609375 1.371094-3.730469.628906-1.121093 1.433594-2.050781 2.417969-2.789062s2.175781-1.105469 3.570313-1.105469c.328124 0 .675781.035156 1.042968.101562.371094.070313.726563.183594 1.066406.347657.34375.164062.664063.390625.964844.679687.300782.285156.546875.632813.738282 1.042969v-9.59375zm-7.664063 25.832032c.40625 0 .824219-.117188 1.25-.347657.421875-.234375.804688-.546875 1.148438-.945312.339843-.394531.621093-.867188.839843-1.414063s.328126-1.132812.328126-1.761718v-9.347657c-.191407-.4375-.488282-.84375-.882813-1.210937-.394531-.367188-.910156-.554688-1.539063-.554688-.875 0-1.625.296875-2.253906.882813-.628906.585937-1.132812 1.324219-1.515625 2.214843-.382812.886719-.664062 1.859376-.839843 2.910157-.179688 1.050781-.269532 2.058593-.269532 3.011719 0 2.351562.324219 4.035156.964844 5.042968.640625 1.011719 1.566406 1.519532 2.769531 1.519532zm0 0"/><path d="m119.539062 29.894531v13.9375c0 .328125.011719.703125.039063 1.128907.027344.421874.105469.824218.226563 1.207031.125.382812.3125.707031.574218.964843.261719.261719.636719.390626 1.128906.390626.21875 0 .457032-.027344.714844-.082032.261719-.054687.472656-.109375.636719-.164062.027344.136718.046875.257812.0625.367187.011719.109375.019531.234375.019531.371094 0 .820313-.3125 1.460937-.945312 1.925781-.625.464844-1.335938.695313-2.128906.695313-.847657 0-1.613282-.292969-2.296876-.878907-.683593-.589843-1.148437-1.578124-1.394531-2.972656-.410156 1.066406-1.078125 1.972656-2.007812 2.726563-.929688.75-2.050781 1.125-3.363281 1.125-.820313 0-1.644532-.167969-2.480469-.511719-.832031-.339844-1.578125-.878906-2.234375-1.617188-.65625-.738281-1.195313-1.695312-1.617188-2.871093-.425781-1.175781-.636718-2.597657-.636718-4.265625 0-1.28125.144531-2.617188.429687-3.996094.289063-1.378906.738281-2.636719 1.351563-3.773438.617187-1.132812 1.414062-2.070312 2.398437-2.808593s2.160156-1.105469 3.527344-1.105469c.710937 0 1.441406.152344 2.195312.449219.75.300781 1.316407.875 1.699219 1.722656v-1.964844zm-7.875 17.628907c.523438 0 1.015626-.125 1.476563-.371094.464844-.246094.871094-.574219 1.210937-.984375.34375-.410157.609376-.878907.800782-1.414063.191406-.53125.285156-1.097656.285156-1.699218v-9.347657c-.191406-.464843-.476562-.875-.859375-1.230469-.382813-.355468-.929687-.535156-1.640625-.535156-.875 0-1.613281.296875-2.214844.882813-.601562.585937-1.09375 1.332031-1.476562 2.234375-.382813.902344-.660156 1.90625-.839844 3.011718-.175781 1.109376-.265625 2.167969-.265625 3.179688 0 2.214844.339844 3.8125 1.023437 4.796875.683594.984375 1.519532 1.476563 2.5 1.476563zm0 0"/><path d="m150.78125 47.113281 5.289062-27.265625h3.03125l5.863282 27.265625 5.289062-27.265625h2.339844l-6.480469 30.546875h-4.550781l-4.917969-22.222656-4.714843 22.222656h-4.550782l-6.519531-28.414062c-1.039063 0-1.914063.183593-2.625.550781-.710937.371094-1.285156.863281-1.722656 1.476562-.4375.617188-.757813 1.3125-.960938 2.09375-.207031.777344-.308593 1.578126-.308593 2.398438 0 1.175781.164062 2.226562.492187 3.15625s.804687 1.789062 1.433594 2.582031c-.546875 0-1.09375-.082031-1.640625-.246093-.546875-.164063-1.039063-.449219-1.476563-.859376-.4375-.410156-.789062-.964843-1.066406-1.660156-.269531-.699218-.410156-1.578125-.410156-2.644531 0-1.230469.234375-2.40625.699219-3.527344.464843-1.121093 1.148437-2.097656 2.050781-2.933593.902343-.832032 2.007812-1.496094 3.320312-1.988282 1.3125-.492187 2.816407-.734375 4.507813-.734375.300781 0 .597656.011719.882812.039063.289063.027344.582032.066406.882813.121094zm0 0"/><path d="m177.757812 29.894531v3.441407c.328126-.492188.648438-.957032.964844-1.394532.3125-.4375.664063-.820312 1.042969-1.148437.382813-.328125.808594-.59375 1.273437-.796875.464844-.207032.984376-.308594 1.558594-.308594.929688 0 1.613282.238281 2.046875.71875.441407.476562.65625 1.058594.65625 1.742188 0 .410156-.066406.75-.203125 1.023437-.136718.273437-.300781.492187-.492187.65625-.191407.164063-.394531.28125-.617188.347656-.214843.070313-.410156.105469-.574219.105469-.242187 0-.441406-.054688-.59375-.164062-.148437-.109376-.300781-.226563-.449218-.351563-.148438-.121094-.320313-.238281-.511719-.347656s-.4375-.164063-.738281-.164063c-.628906 0-1.230469.21875-1.804688.65625-.574218.4375-1.09375.902344-1.558594 1.394532v15.089843h-4.101562v-20.5zm0 0"/><path d="m191.574219 29.894531v13.9375c0 .273438.015625.617188.042969 1.027344.027343.410156.101562.8125.226562 1.207031.121094.398438.304688.738282.550781 1.027344.246094.285156.589844.429688 1.027344.429688 1.339844 0 2.320313-1.492188 2.949219-4.46875h1.519531c-.300781 1.722656-.683594 3.082031-1.148437 4.078124-.464844.996094-.957032 1.757813-1.476563 2.277344-.519531.519532-1.050781.851563-1.601563 1.003906-.542968.148438-1.035156.222657-1.472656.222657-.957031 0-1.738281-.183594-2.339844-.550781-.597656-.371094-1.078124-.839844-1.433593-1.414063s-.601563-1.21875-.738281-1.929687c-.136719-.710938-.203126-1.394532-.203126-2.046876v-14.800781zm-4.835938-5.90625c0-.738281.257813-1.378906.777344-1.925781s1.164063-.820312 1.925781-.820312c.738282 0 1.382813.273437 1.929688.820312s.820312 1.1875.820312 1.925781c0 .765625-.273437 1.40625-.820312 1.925781-.546875.519532-1.191406.78125-1.929688.78125-.761718 0-1.40625-.261718-1.925781-.78125-.519531-.519531-.777344-1.160156-.777344-1.925781zm0 0"/><path d="m200.472656 23.660156v6.234375h3.15625v1.433594h-3.15625v12.503906c0 .328125.011719.703125.039063 1.128907.027343.421874.105469.824218.226562 1.207031.125.382812.316407.707031.574219.964843.261719.261719.621094.390626 1.085938.390626.738281 0 1.441406-.371094 2.113281-1.109376.667969-.738281 1.195312-1.855468 1.578125-3.359374h1.515625c-.464844 1.722656-.960938 3.082031-1.496094 4.078124-.53125.996094-1.085937 1.757813-1.660156 2.277344-.574219.519532-1.140625.851563-1.703125 1.003906-.558594.148438-1.070313.222657-1.535156.222657-.984376 0-1.789063-.183594-2.421876-.550781-.625-.371094-1.117187-.839844-1.472656-1.414063-.355468-.574219-.601562-1.210937-.738281-1.90625-.136719-.699219-.207031-1.390625-.207031-2.070313v-13.367187h-1.394532v-1.433594h1.394532v-5.660156zm0 0"/><path d="m218.839844 35.019531c0 1.910157-.785156 3.511719-2.355469 4.796875-1.574219 1.28125-3.753906 2.074219-6.542969 2.375.113282 1.09375.308594 1.984375.597656 2.667969.285157.679687.632813 1.222656 1.042969 1.617187.410157.398438.882813.671876 1.414063.820313.535156.152344 1.089844.226563 1.660156.226563 1.3125 0 2.542969-.34375 3.691406-1.027344 1.148438-.683594 2.078125-1.828125 2.789063-3.441406h1.3125c-.355469 1.011718-.847657 1.972656-1.476563 2.890624-.628906.914063-1.367187 1.722657-2.214844 2.417969-.847656.695313-1.761718 1.25-2.746093 1.660157-.984375.410156-1.996094.613281-3.035157.613281-.957031 0-1.878906-.164063-2.765624-.488281-.890626-.328126-1.675782-.871094-2.359376-1.621094-.683593-.75-1.234374-1.730469-1.660156-2.933594-.421875-1.199219-.636718-2.675781-.636718-4.425781 0-1.148438.132812-2.390625.390624-3.730469.261719-1.339844.699219-2.582031 1.3125-3.730469.613282-1.148437 1.421876-2.105469 2.417969-2.871093 1-.765626 2.234375-1.148438 3.710938-1.148438.683593 0 1.347656.074219 1.988281.226562.644531.148438 1.222656.421876 1.742188.820313.519531.394531.9375.933594 1.25 1.617187.316406.683594.472656 1.574219.472656 2.667969zm-8.9375 5.574219c1.941406-.300781 3.480468-.984375 4.613281-2.050781 1.132813-1.066407 1.699219-2.378907 1.699219-3.933594 0-1.039063-.175782-1.785156-.53125-2.234375-.355469-.453125-.863282-.679688-1.519532-.679688-.707031 0-1.328124.273438-1.863281.820313-.53125.546875-.976562 1.25-1.332031 2.113281-.355469.859375-.621094 1.816406-.800781 2.871094-.175781 1.050781-.265625 2.082031-.265625 3.09375zm0 0"/><path d="m229.253906 28.621094c.65625 2.625 1.203125 4.761718 1.640625 6.417968.4375 1.652344.785157 3.046876 1.046875 4.179688.257813 1.136719.441406 2.140625.550782 3.015625.109374.875.164062 1.84375.164062 2.910156 0 1.011719-.21875 1.867188-.65625 2.5625-.4375.695313-.984375 1.265625-1.640625 1.703125s-1.351563.75-2.089844.941406c-.738281.191407-1.394531.285157-1.96875.285157-1.199219 0-2.191406-.191407-2.972656-.570313-.777344-.382812-1.398437-.871094-1.863281-1.457031-.464844-.589844-.792969-1.242187-.984375-1.96875-.191407-.722656-.289063-1.414063-.289063-2.070313 0-.710937.144532-1.332031.433594-1.863281.285156-.535156.632812-.910156 1.042969-1.128906.710937-2.050781 1.410156-4.078125 2.09375-6.089844.683593-2.007812 1.132812-4.023437 1.351562-6.046875zm-.941406 16.074218c0-.847656-.046875-1.601562-.144531-2.257812-.097657-.65625-.238281-1.378906-.429688-2.171875-.191406-.792969-.429687-1.757813-.71875-2.890625-.285156-1.132812-.621093-2.589844-1.003906-4.367188-.164063 1.53125-.5 2.992188-1.003906 4.386719-.507813 1.394531-.964844 2.828125-1.375 4.304688.246093.164062.457031.390625.636719.679687.175781.285156.265624.660156.265624 1.125 0 .519532-.136718.917969-.410156 1.191406-.273437.273438-.574218.410157-.902344.410157-.4375 0-.804687-.191407-1.105468-.574219.21875.953125.601562 1.699219 1.148437 2.234375.546875.53125 1.269531.796875 2.171875.796875.875 0 1.570313-.222656 2.089844-.675781.519531-.449219.78125-1.183594.78125-2.191407zm0 0"/><path d="m257.132812 20.257812v29.316407c.875.191406 1.730469.492187 2.5625.898437.835938.410156 1.691407.820313 2.5625 1.230469.875.410156 1.800782.765625 2.769532 1.066406s2.027344.453125 3.175781.453125c.957031 0 2.011719-.273437 3.15625-.820312.082031.382812.125.75.125 1.105468 0 .574219-.101563 1.113282-.308594 1.621094-.203125.503906-.503906.949219-.902343 1.332032-.394532.382812-.875.691406-1.433594.921874-.558594.234376-1.183594.347657-1.867188.347657-1.066406 0-2.117187-.332031-3.15625-1.003907-1.039062-.667968-2.089844-1.40625-3.15625-2.214843-1.066406-.804688-2.179687-1.542969-3.339844-2.210938-1.164062-.671875-2.398437-1.007812-3.710937-1.007812-.164063 0-.324219 0-.472656 0-.148438 0-.308594.015625-.472657.042969v-28.863282c-1.828124.519532-3.277343 1.40625-4.34375 2.664063-1.066406 1.257812-1.601562 2.828125-1.601562 4.714843 0 .738282.054688 1.359376.164062 1.867188.109376.503906.246094.941406.410157 1.308594.164062.371094.363281.683594.597656.945312.230469.257813.46875.5.714844.71875-1.640625 0-2.9375-.378906-3.894531-1.128906-.957032-.753906-1.433594-2.03125-1.433594-3.832031 0-1.3125.339844-2.550781 1.023437-3.710938.683594-1.164062 1.59375-2.1875 2.726563-3.078125 1.132812-.886718 2.433594-1.589844 3.894531-2.109375 1.464844-.519531 2.972656-.78125 4.53125-.78125.300781 0 .59375.007813.882813.023438.285156.011719.566406.03125.839843.058593zm0 0"/><path d="m267.136719 29.894531v13.9375c0 .273438.015625.617188.042969 1.027344.027343.410156.101562.8125.226562 1.207031.121094.398438.304688.738282.550781 1.027344.246094.285156.589844.429688 1.027344.429688 1.339844 0 2.324219-1.492188 2.949219-4.46875h1.519531c-.300781 1.722656-.683594 3.082031-1.148437 4.078124-.464844.996094-.957032 1.757813-1.476563 2.277344-.519531.519532-1.050781.851563-1.597656 1.003906-.546875.148438-1.039063.222657-1.476563.222657-.957031 0-1.734375-.183594-2.339844-.550781-.597656-.371094-1.078124-.839844-1.433593-1.414063s-.601563-1.21875-.738281-1.929687c-.136719-.710938-.203126-1.394532-.203126-2.046876v-14.800781zm-4.835938-5.90625c0-.738281.257813-1.378906.777344-1.925781s1.164063-.820312 1.929687-.820312c.734376 0 1.378907.273437 1.925782.820312s.820312 1.1875.820312 1.925781c0 .765625-.273437 1.40625-.820312 1.925781-.546875.519532-1.191406.78125-1.925782.78125-.765624 0-1.410156-.261718-1.929687-.78125-.519531-.519531-.777344-1.160156-.777344-1.925781zm0 0"/><path d="m275.992188 29.894531h3.324218v1.433594h-3.324218v22.34375c0 1.449219-.140626 2.625-.429688 3.527344-.285156.902343-.660156 1.613281-1.125 2.132812s-1.003906.867188-1.621094 1.042969c-.613281.179688-1.261718.269531-1.949218.269531-1.472657 0-2.558594-.34375-3.257813-1.027343-.695313-.683594-1.046875-1.667969-1.046875-2.953126 0-.683593.160156-1.308593.472656-1.882812.316406-.574219.726563-1.101562 1.230469-1.582031.507813-.476563 1.074219-.898438 1.703125-1.269531.628906-.367188 1.269531-.691407 1.925781-.964844v-24.1875c0-2.378906.558594-4.164063 1.679688-5.351563 1.121093-1.1875 2.558593-1.78125 4.304687-1.78125.820313 0 1.574219.121094 2.257813.367188.683593.246093 1.285156.628906 1.800781 1.148437.523438.519532.925781 1.160156 1.210938 1.925782.289062.765624.429687 1.667968.429687 2.707031h-1.597656c-.164063-1.09375-.457031-1.953125-.882813-2.582031-.421875-.628907-1.125-.945313-2.109375-.945313-.65625 0-1.175781.144531-1.558593.429687-.382813.289063-.683594.679688-.902344 1.171876-.21875.492187-.363282 1.085937-.429688 1.78125-.070312.699218-.105468 1.457031-.105468 2.277343zm-5.941407 28.617188c.792969 0 1.296875-.425781 1.515625-1.273438.21875-.847656.328125-2.007812.328125-3.484375v-1.269531c-1.230469.601563-2.160156 1.257813-2.789062 1.96875-.628907.710937-.941407 1.40625-.941407 2.089844 0 .546875.175782 1.011719.53125 1.394531.355469.382812.808594.574219 1.355469.574219zm0 0"/><path d="m294.527344 35.019531c0 1.910157-.785156 3.511719-2.359375 4.796875-1.570313 1.28125-3.75 2.074219-6.539063 2.375.109375 1.09375.308594 1.984375.59375 2.667969.289063.679687.636719 1.222656 1.046875 1.617187.410157.398438.882813.671876 1.414063.820313.535156.152344 1.085937.226563 1.660156.226563.875 0 1.703125-.152344 2.480469-.453126.78125-.300781 1.429687-.820312 1.949219-1.558593.027343.191406.046874.378906.0625.554687.011718.179688.019531.335938.019531.472656 0 .628907-.160157 1.1875-.472657 1.679688s-.738281.921875-1.269531 1.292969c-.535156.367187-1.148437.648437-1.847656.839843-.695313.191407-1.425781.285157-2.191406.285157-.929688 0-1.859375-.167969-2.789063-.511719-.929687-.339844-1.769531-.886719-2.519531-1.640625-.753906-.75-1.363281-1.726563-1.828125-2.929687-.460938-1.203126-.695312-2.664063-.695312-4.386719 0-1.148438.128906-2.390625.390624-3.730469.257813-1.339844.695313-2.582031 1.3125-3.730469.613282-1.148437 1.417969-2.105469 2.417969-2.871093.996094-.765626 2.234375-1.148438 3.710938-1.148438.683593 0 1.347656.074219 1.988281.226562.640625.148438 1.222656.421876 1.742188.820313.519531.394531.9375.933594 1.25 1.617187.3125.683594.472656 1.574219.472656 2.667969zm-8.9375 5.574219c1.9375-.300781 3.476562-.984375 4.609375-2.050781 1.136719-1.066407 1.703125-2.378907 1.703125-3.933594 0-1.039063-.175782-1.785156-.535156-2.234375-.351563-.453125-.859376-.679688-1.515626-.679688-.710937 0-1.332031.273438-1.863281.820313-.535156.546875-.976562 1.25-1.335937 2.113281-.351563.859375-.621094 1.816406-.796875 2.871094-.179688 1.050781-.265625 2.082031-.265625 3.09375zm0 0"/></g></svg>