<?xml version="1.0" encoding="UTF-8"?>
<svg xmlns="http://www.w3.org/2000/svg" xmlns:xlink="http://www.w3.org/1999/xlink" width="300pt" height="70pt" viewBox="0 0 300 70" version="1.1">
<g id="surface1">
<path style=" stroke:none;fill-rule:evenodd;fill:rgb(0%,37.254902%,52.156863%);fill-opacity:1;" d="M 23.105469 47.113281 L 28.394531 19.847656 L 31.429688 19.847656 L 37.292969 47.113281 L 42.582031 19.847656 L 44.917969 19.847656 L 38.441406 50.394531 L 33.890625 50.394531 L 28.96875 28.171875 L 24.253906 50.394531 L 19.703125 50.394531 L 13.183594 21.980469 C 12.144531 21.980469 11.269531 22.164062 10.558594 22.53125 C 9.851562 22.902344 9.277344 23.394531 8.839844 24.007812 C 8.402344 24.625 8.078125 25.320312 7.875 26.101562 C 7.667969 26.878906 7.566406 27.679688 7.566406 28.5 C 7.566406 29.675781 7.730469 30.726562 8.058594 31.65625 C 8.386719 32.585938 8.867188 33.445312 9.496094 34.238281 C 8.949219 34.238281 8.402344 34.15625 7.855469 33.992188 C 7.308594 33.828125 6.816406 33.542969 6.378906 33.132812 C 5.941406 32.722656 5.585938 32.167969 5.3125 31.472656 C 5.039062 30.773438 4.902344 29.894531 4.902344 28.828125 C 4.902344 27.597656 5.132812 26.421875 5.597656 25.300781 C 6.0625 24.179688 6.746094 23.203125 7.648438 22.367188 C 8.550781 21.535156 9.660156 20.871094 10.96875 20.378906 C 12.28125 19.886719 13.785156 19.644531 15.480469 19.644531 C 15.78125 19.644531 16.074219 19.65625 16.363281 19.683594 C 16.648438 19.710938 16.941406 19.75 17.242188 19.804688 Z M 23.105469 47.113281 "/>
<path style=" stroke:none;fill-rule:evenodd;fill:rgb(0%,37.254902%,52.156863%);fill-opacity:1;" d="M 60.621094 29.894531 L 60.621094 43.832031 C 60.621094 44.105469 60.636719 44.449219 60.664062 44.859375 C 60.691406 45.269531 60.765625 45.671875 60.886719 46.066406 C 61.011719 46.464844 61.195312 46.804688 61.441406 47.09375 C 61.6875 47.378906 62.027344 47.523438 62.464844 47.523438 C 63.804688 47.523438 64.789062 46.03125 65.417969 43.054688 L 66.933594 43.054688 C 66.632812 44.777344 66.253906 46.136719 65.789062 47.132812 C 65.324219 48.128906 64.832031 48.890625 64.3125 49.410156 C 63.792969 49.929688 63.257812 50.261719 62.710938 50.414062 C 62.164062 50.5625 61.671875 50.636719 61.238281 50.636719 C 60.609375 50.636719 60.066406 50.527344 59.617188 50.3125 C 59.164062 50.09375 58.78125 49.804688 58.46875 49.449219 C 58.15625 49.09375 57.902344 48.683594 57.710938 48.21875 C 57.519531 47.753906 57.367188 47.261719 57.257812 46.742188 C 56.847656 47.808594 56.1875 48.726562 55.269531 49.492188 C 54.355469 50.257812 53.242188 50.636719 51.929688 50.636719 C 51.109375 50.636719 50.28125 50.472656 49.449219 50.148438 C 48.613281 49.820312 47.863281 49.277344 47.195312 48.527344 C 46.523438 47.777344 45.976562 46.804688 45.554688 45.617188 C 45.128906 44.425781 44.917969 42.972656 44.917969 41.25 C 44.917969 39.992188 45.0625 38.679688 45.347656 37.3125 C 45.636719 35.945312 46.09375 34.703125 46.722656 33.582031 C 47.351562 32.460938 48.15625 31.53125 49.140625 30.792969 C 50.125 30.054688 51.3125 29.6875 52.707031 29.6875 C 53.035156 29.6875 53.386719 29.722656 53.753906 29.789062 C 54.121094 29.859375 54.476562 29.972656 54.820312 30.136719 C 55.160156 30.300781 55.484375 30.527344 55.785156 30.816406 C 56.085938 31.101562 56.332031 31.449219 56.519531 31.859375 L 56.519531 29.894531 Z M 52.953125 47.523438 C 53.363281 47.523438 53.78125 47.40625 54.203125 47.175781 C 54.628906 46.941406 55.011719 46.628906 55.351562 46.230469 C 55.695312 45.835938 55.976562 45.363281 56.195312 44.816406 C 56.410156 44.269531 56.519531 43.683594 56.519531 43.054688 L 56.519531 33.707031 C 56.332031 33.269531 56.035156 32.863281 55.640625 32.496094 C 55.242188 32.128906 54.730469 31.941406 54.101562 31.941406 C 53.226562 31.941406 52.476562 32.238281 51.847656 32.824219 C 51.21875 33.410156 50.714844 34.148438 50.332031 35.039062 C 49.949219 35.925781 49.667969 36.898438 49.488281 37.949219 C 49.3125 39 49.222656 40.007812 49.222656 40.960938 C 49.222656 43.3125 49.542969 44.996094 50.1875 46.003906 C 50.828125 47.015625 51.75 47.523438 52.953125 47.523438 Z M 52.953125 47.523438 "/>
<path style=" stroke:none;fill-rule:evenodd;fill:rgb(0%,37.254902%,52.156863%);fill-opacity:1;" d="M 69.476562 29.894531 L 69.476562 33.007812 C 69.886719 32.269531 70.304688 31.675781 70.726562 31.226562 C 71.152344 30.773438 71.582031 30.4375 72.019531 30.21875 C 72.457031 30 72.875 29.859375 73.269531 29.789062 C 73.667969 29.722656 74.042969 29.6875 74.398438 29.6875 C 75.628906 29.6875 76.617188 29.917969 77.371094 30.382812 C 78.121094 30.847656 78.6875 31.445312 79.070312 32.167969 C 79.453125 32.890625 79.707031 33.683594 79.828125 34.546875 C 79.953125 35.40625 80.015625 36.234375 80.015625 37.027344 C 80.015625 37.519531 80 38.058594 79.972656 38.644531 C 79.945312 39.234375 79.917969 39.835938 79.890625 40.449219 C 79.863281 41.066406 79.835938 41.679688 79.808594 42.296875 C 79.78125 42.910156 79.769531 43.476562 79.769531 43.996094 C 79.769531 44.214844 79.78125 44.523438 79.808594 44.917969 C 79.835938 45.316406 79.90625 45.703125 80.015625 46.085938 C 80.125 46.46875 80.300781 46.804688 80.546875 47.09375 C 80.792969 47.378906 81.148438 47.523438 81.613281 47.523438 C 82.242188 47.523438 82.808594 47.167969 83.316406 46.457031 C 83.820312 45.746094 84.238281 44.613281 84.566406 43.054688 L 86.082031 43.054688 C 85.78125 44.777344 85.398438 46.136719 84.933594 47.132812 C 84.46875 48.128906 83.976562 48.890625 83.457031 49.410156 C 82.9375 49.929688 82.417969 50.261719 81.902344 50.414062 C 81.382812 50.5625 80.902344 50.636719 80.464844 50.636719 C 79.589844 50.636719 78.851562 50.46875 78.25 50.125 C 77.648438 49.785156 77.15625 49.328125 76.777344 48.753906 C 76.394531 48.179688 76.113281 47.507812 75.933594 46.742188 C 75.757812 45.976562 75.667969 45.1875 75.667969 44.367188 C 75.667969 44.121094 75.675781 43.660156 75.6875 42.992188 C 75.703125 42.324219 75.714844 41.605469 75.730469 40.839844 C 75.742188 40.074219 75.757812 39.351562 75.769531 38.667969 C 75.785156 37.984375 75.792969 37.503906 75.792969 37.230469 C 75.792969 36.355469 75.722656 35.632812 75.585938 35.058594 C 75.449219 34.484375 75.257812 34.035156 75.011719 33.707031 C 74.765625 33.378906 74.484375 33.144531 74.171875 33.007812 C 73.859375 32.871094 73.523438 32.804688 73.167969 32.804688 C 72.320312 32.804688 71.589844 33.144531 70.972656 33.828125 C 70.359375 34.511719 69.859375 35.660156 69.476562 37.273438 L 69.476562 50.394531 L 65.378906 50.394531 L 65.378906 29.894531 Z M 69.476562 29.894531 "/>
<path style=" stroke:none;fill-rule:evenodd;fill:rgb(0%,37.254902%,52.156863%);fill-opacity:1;" d="M 99.652344 21.691406 L 99.652344 43.832031 C 99.652344 44.105469 99.667969 44.449219 99.695312 44.859375 C 99.722656 45.269531 99.796875 45.671875 99.917969 46.066406 C 100.042969 46.464844 100.226562 46.804688 100.472656 47.09375 C 100.71875 47.378906 101.0625 47.523438 101.496094 47.523438 C 102.839844 47.523438 103.820312 46.03125 104.449219 43.054688 L 105.96875 43.054688 C 105.667969 44.777344 105.285156 46.136719 104.820312 47.132812 C 104.355469 48.128906 103.863281 48.890625 103.34375 49.410156 C 102.824219 49.929688 102.289062 50.261719 101.742188 50.414062 C 101.199219 50.5625 100.707031 50.636719 100.269531 50.636719 C 99.640625 50.636719 99.101562 50.527344 98.648438 50.3125 C 98.199219 50.09375 97.816406 49.804688 97.5 49.449219 C 97.1875 49.09375 96.933594 48.683594 96.742188 48.21875 C 96.550781 47.753906 96.402344 47.261719 96.292969 46.742188 C 95.882812 47.808594 95.21875 48.726562 94.304688 49.492188 C 93.386719 50.257812 92.273438 50.636719 90.960938 50.636719 C 90.140625 50.636719 89.316406 50.472656 88.480469 50.148438 C 87.648438 49.820312 86.894531 49.277344 86.226562 48.527344 C 85.554688 47.777344 85.007812 46.804688 84.585938 45.617188 C 84.164062 44.425781 83.949219 42.972656 83.949219 41.25 C 83.949219 39.992188 84.09375 38.679688 84.382812 37.3125 C 84.667969 35.945312 85.125 34.703125 85.753906 33.582031 C 86.382812 32.460938 87.1875 31.53125 88.171875 30.792969 C 89.15625 30.054688 90.347656 29.6875 91.742188 29.6875 C 92.070312 29.6875 92.417969 29.722656 92.785156 29.789062 C 93.15625 29.859375 93.511719 29.972656 93.851562 30.136719 C 94.195312 30.300781 94.515625 30.527344 94.816406 30.816406 C 95.117188 31.101562 95.363281 31.449219 95.554688 31.859375 L 95.554688 22.265625 Z M 91.988281 47.523438 C 92.394531 47.523438 92.8125 47.40625 93.238281 47.175781 C 93.660156 46.941406 94.042969 46.628906 94.386719 46.230469 C 94.726562 45.835938 95.007812 45.363281 95.226562 44.816406 C 95.445312 44.269531 95.554688 43.683594 95.554688 43.054688 L 95.554688 33.707031 C 95.363281 33.269531 95.066406 32.863281 94.671875 32.496094 C 94.277344 32.128906 93.761719 31.941406 93.132812 31.941406 C 92.257812 31.941406 91.507812 32.238281 90.878906 32.824219 C 90.25 33.410156 89.746094 34.148438 89.363281 35.039062 C 88.980469 35.925781 88.699219 36.898438 88.523438 37.949219 C 88.34375 39 88.253906 40.007812 88.253906 40.960938 C 88.253906 43.3125 88.578125 44.996094 89.21875 46.003906 C 89.859375 47.015625 90.785156 47.523438 91.988281 47.523438 Z M 91.988281 47.523438 "/>
<path style=" stroke:none;fill-rule:evenodd;fill:rgb(0%,37.254902%,52.156863%);fill-opacity:1;" d="M 119.539062 29.894531 L 119.539062 43.832031 C 119.539062 44.160156 119.550781 44.535156 119.578125 44.960938 C 119.605469 45.382812 119.683594 45.785156 119.804688 46.167969 C 119.929688 46.550781 120.117188 46.875 120.378906 47.132812 C 120.640625 47.394531 121.015625 47.523438 121.507812 47.523438 C 121.726562 47.523438 121.964844 47.496094 122.222656 47.441406 C 122.484375 47.386719 122.695312 47.332031 122.859375 47.277344 C 122.886719 47.414062 122.90625 47.535156 122.921875 47.644531 C 122.933594 47.753906 122.941406 47.878906 122.941406 48.015625 C 122.941406 48.835938 122.628906 49.476562 121.996094 49.941406 C 121.371094 50.40625 120.660156 50.636719 119.867188 50.636719 C 119.019531 50.636719 118.253906 50.34375 117.570312 49.757812 C 116.886719 49.167969 116.421875 48.179688 116.175781 46.785156 C 115.765625 47.851562 115.097656 48.757812 114.167969 49.511719 C 113.238281 50.261719 112.117188 50.636719 110.804688 50.636719 C 109.984375 50.636719 109.160156 50.46875 108.324219 50.125 C 107.492188 49.785156 106.746094 49.246094 106.089844 48.507812 C 105.433594 47.769531 104.894531 46.8125 104.472656 45.636719 C 104.046875 44.460938 103.835938 43.039062 103.835938 41.371094 C 103.835938 40.089844 103.980469 38.753906 104.265625 37.375 C 104.554688 35.996094 105.003906 34.738281 105.617188 33.601562 C 106.234375 32.46875 107.03125 31.53125 108.015625 30.792969 C 109 30.054688 110.175781 29.6875 111.542969 29.6875 C 112.253906 29.6875 112.984375 29.839844 113.738281 30.136719 C 114.488281 30.4375 115.054688 31.011719 115.4375 31.859375 L 115.4375 29.894531 Z M 111.664062 47.523438 C 112.1875 47.523438 112.679688 47.398438 113.140625 47.152344 C 113.605469 46.90625 114.011719 46.578125 114.351562 46.167969 C 114.695312 45.757812 114.960938 45.289062 115.152344 44.753906 C 115.34375 44.222656 115.4375 43.65625 115.4375 43.054688 L 115.4375 33.707031 C 115.246094 33.242188 114.960938 32.832031 114.578125 32.476562 C 114.195312 32.121094 113.648438 31.941406 112.9375 31.941406 C 112.0625 31.941406 111.324219 32.238281 110.722656 32.824219 C 110.121094 33.410156 109.628906 34.15625 109.246094 35.058594 C 108.863281 35.960938 108.585938 36.964844 108.40625 38.070312 C 108.230469 39.179688 108.140625 40.238281 108.140625 41.25 C 108.140625 43.464844 108.480469 45.0625 109.164062 46.046875 C 109.847656 47.03125 110.683594 47.523438 111.664062 47.523438 Z M 111.664062 47.523438 "/>
<path style=" stroke:none;fill-rule:evenodd;fill:rgb(0%,37.254902%,52.156863%);fill-opacity:1;" d="M 150.78125 47.113281 L 156.070312 19.847656 L 159.101562 19.847656 L 164.964844 47.113281 L 170.253906 19.847656 L 172.59375 19.847656 L 166.113281 50.394531 L 161.5625 50.394531 L 156.644531 28.171875 L 151.929688 50.394531 L 147.378906 50.394531 L 140.859375 21.980469 C 139.820312 21.980469 138.945312 22.164062 138.234375 22.53125 C 137.523438 22.902344 136.949219 23.394531 136.511719 24.007812 C 136.074219 24.625 135.753906 25.320312 135.550781 26.101562 C 135.34375 26.878906 135.242188 27.679688 135.242188 28.5 C 135.242188 29.675781 135.40625 30.726562 135.734375 31.65625 C 136.0625 32.585938 136.539062 33.445312 137.167969 34.238281 C 136.621094 34.238281 136.074219 34.15625 135.527344 33.992188 C 134.980469 33.828125 134.488281 33.542969 134.050781 33.132812 C 133.613281 32.722656 133.261719 32.167969 132.984375 31.472656 C 132.714844 30.773438 132.574219 29.894531 132.574219 28.828125 C 132.574219 27.597656 132.808594 26.421875 133.273438 25.300781 C 133.738281 24.179688 134.421875 23.203125 135.324219 22.367188 C 136.226562 21.535156 137.332031 20.871094 138.644531 20.378906 C 139.957031 19.886719 141.460938 19.644531 143.152344 19.644531 C 143.453125 19.644531 143.75 19.65625 144.035156 19.683594 C 144.324219 19.710938 144.617188 19.75 144.917969 19.804688 Z M 150.78125 47.113281 "/>
<path style=" stroke:none;fill-rule:evenodd;fill:rgb(0%,37.254902%,52.156863%);fill-opacity:1;" d="M 177.757812 29.894531 L 177.757812 33.335938 C 178.085938 32.84375 178.40625 32.378906 178.722656 31.941406 C 179.035156 31.503906 179.386719 31.121094 179.765625 30.792969 C 180.148438 30.464844 180.574219 30.199219 181.039062 29.996094 C 181.503906 29.789062 182.023438 29.6875 182.597656 29.6875 C 183.527344 29.6875 184.210938 29.925781 184.644531 30.40625 C 185.085938 30.882812 185.300781 31.464844 185.300781 32.148438 C 185.300781 32.558594 185.234375 32.898438 185.097656 33.171875 C 184.960938 33.445312 184.796875 33.664062 184.605469 33.828125 C 184.414062 33.992188 184.210938 34.109375 183.988281 34.175781 C 183.773438 34.246094 183.578125 34.28125 183.414062 34.28125 C 183.171875 34.28125 182.972656 34.226562 182.820312 34.117188 C 182.671875 34.007812 182.519531 33.890625 182.371094 33.765625 C 182.222656 33.644531 182.050781 33.527344 181.859375 33.417969 C 181.667969 33.308594 181.421875 33.253906 181.121094 33.253906 C 180.492188 33.253906 179.890625 33.472656 179.316406 33.910156 C 178.742188 34.347656 178.222656 34.8125 177.757812 35.304688 L 177.757812 50.394531 L 173.65625 50.394531 L 173.65625 29.894531 Z M 177.757812 29.894531 "/>
<path style=" stroke:none;fill-rule:evenodd;fill:rgb(0%,37.254902%,52.156863%);fill-opacity:1;" d="M 191.574219 29.894531 L 191.574219 43.832031 C 191.574219 44.105469 191.589844 44.449219 191.617188 44.859375 C 191.644531 45.269531 191.71875 45.671875 191.84375 46.066406 C 191.964844 46.464844 192.148438 46.804688 192.394531 47.09375 C 192.640625 47.378906 192.984375 47.523438 193.421875 47.523438 C 194.761719 47.523438 195.742188 46.03125 196.371094 43.054688 L 197.890625 43.054688 C 197.589844 44.777344 197.207031 46.136719 196.742188 47.132812 C 196.277344 48.128906 195.785156 48.890625 195.265625 49.410156 C 194.746094 49.929688 194.214844 50.261719 193.664062 50.414062 C 193.121094 50.5625 192.628906 50.636719 192.191406 50.636719 C 191.234375 50.636719 190.453125 50.453125 189.851562 50.085938 C 189.253906 49.714844 188.773438 49.246094 188.417969 48.671875 C 188.0625 48.097656 187.816406 47.453125 187.679688 46.742188 C 187.542969 46.03125 187.476562 45.347656 187.476562 44.695312 L 187.476562 29.894531 Z M 186.738281 23.988281 C 186.738281 23.25 186.996094 22.609375 187.515625 22.0625 C 188.035156 21.515625 188.679688 21.242188 189.441406 21.242188 C 190.179688 21.242188 190.824219 21.515625 191.371094 22.0625 C 191.917969 22.609375 192.191406 23.25 192.191406 23.988281 C 192.191406 24.753906 191.917969 25.394531 191.371094 25.914062 C 190.824219 26.433594 190.179688 26.695312 189.441406 26.695312 C 188.679688 26.695312 188.035156 26.433594 187.515625 25.914062 C 186.996094 25.394531 186.738281 24.753906 186.738281 23.988281 Z M 186.738281 23.988281 "/>
<path style=" stroke:none;fill-rule:evenodd;fill:rgb(0%,37.254902%,52.156863%);fill-opacity:1;" d="M 200.472656 23.660156 L 200.472656 29.894531 L 203.628906 29.894531 L 203.628906 31.328125 L 200.472656 31.328125 L 200.472656 43.832031 C 200.472656 44.160156 200.484375 44.535156 200.511719 44.960938 C 200.539062 45.382812 200.617188 45.785156 200.738281 46.167969 C 200.863281 46.550781 201.054688 46.875 201.3125 47.132812 C 201.574219 47.394531 201.933594 47.523438 202.398438 47.523438 C 203.136719 47.523438 203.839844 47.152344 204.511719 46.414062 C 205.179688 45.675781 205.707031 44.558594 206.089844 43.054688 L 207.605469 43.054688 C 207.140625 44.777344 206.644531 46.136719 206.109375 47.132812 C 205.578125 48.128906 205.023438 48.890625 204.449219 49.410156 C 203.875 49.929688 203.308594 50.261719 202.746094 50.414062 C 202.1875 50.5625 201.675781 50.636719 201.210938 50.636719 C 200.226562 50.636719 199.421875 50.453125 198.789062 50.085938 C 198.164062 49.714844 197.671875 49.246094 197.316406 48.671875 C 196.960938 48.097656 196.714844 47.460938 196.578125 46.765625 C 196.441406 46.066406 196.371094 45.375 196.371094 44.695312 L 196.371094 31.328125 L 194.976562 31.328125 L 194.976562 29.894531 L 196.371094 29.894531 L 196.371094 24.234375 Z M 200.472656 23.660156 "/>
<path style=" stroke:none;fill-rule:evenodd;fill:rgb(0%,37.254902%,52.156863%);fill-opacity:1;" d="M 218.839844 35.019531 C 218.839844 36.929688 218.054688 38.53125 216.484375 39.816406 C 214.910156 41.097656 212.730469 41.890625 209.941406 42.191406 C 210.054688 43.285156 210.25 44.175781 210.539062 44.859375 C 210.824219 45.539062 211.171875 46.082031 211.582031 46.476562 C 211.992188 46.875 212.464844 47.148438 212.996094 47.296875 C 213.53125 47.449219 214.085938 47.523438 214.65625 47.523438 C 215.96875 47.523438 217.199219 47.179688 218.347656 46.496094 C 219.496094 45.8125 220.425781 44.667969 221.136719 43.054688 L 222.449219 43.054688 C 222.09375 44.066406 221.601562 45.027344 220.972656 45.945312 C 220.34375 46.859375 219.605469 47.667969 218.757812 48.363281 C 217.910156 49.058594 216.996094 49.613281 216.011719 50.023438 C 215.027344 50.433594 214.015625 50.636719 212.976562 50.636719 C 212.019531 50.636719 211.097656 50.472656 210.210938 50.148438 C 209.320312 49.820312 208.535156 49.277344 207.851562 48.527344 C 207.167969 47.777344 206.617188 46.796875 206.191406 45.59375 C 205.769531 44.394531 205.554688 42.917969 205.554688 41.167969 C 205.554688 40.019531 205.6875 38.777344 205.945312 37.4375 C 206.207031 36.097656 206.644531 34.855469 207.257812 33.707031 C 207.871094 32.558594 208.679688 31.601562 209.675781 30.835938 C 210.675781 30.070312 211.910156 29.6875 213.386719 29.6875 C 214.070312 29.6875 214.734375 29.761719 215.375 29.914062 C 216.019531 30.0625 216.597656 30.335938 217.117188 30.734375 C 217.636719 31.128906 218.054688 31.667969 218.367188 32.351562 C 218.683594 33.035156 218.839844 33.925781 218.839844 35.019531 Z M 209.902344 40.59375 C 211.84375 40.292969 213.382812 39.609375 214.515625 38.542969 C 215.648438 37.476562 216.214844 36.164062 216.214844 34.609375 C 216.214844 33.570312 216.039062 32.824219 215.683594 32.375 C 215.328125 31.921875 214.820312 31.695312 214.164062 31.695312 C 213.457031 31.695312 212.835938 31.96875 212.300781 32.515625 C 211.769531 33.0625 211.324219 33.765625 210.96875 34.628906 C 210.613281 35.488281 210.347656 36.445312 210.167969 37.5 C 209.992188 38.550781 209.902344 39.582031 209.902344 40.59375 Z M 209.902344 40.59375 "/>
<path style=" stroke:none;fill-rule:evenodd;fill:rgb(0%,37.254902%,52.156863%);fill-opacity:1;" d="M 229.253906 28.621094 C 229.910156 31.246094 230.457031 33.382812 230.894531 35.039062 C 231.332031 36.691406 231.679688 38.085938 231.941406 39.21875 C 232.199219 40.355469 232.382812 41.359375 232.492188 42.234375 C 232.601562 43.109375 232.65625 44.078125 232.65625 45.144531 C 232.65625 46.15625 232.4375 47.011719 232 47.707031 C 231.5625 48.402344 231.015625 48.972656 230.359375 49.410156 C 229.703125 49.847656 229.007812 50.160156 228.269531 50.351562 C 227.53125 50.542969 226.875 50.636719 226.300781 50.636719 C 225.101562 50.636719 224.109375 50.445312 223.328125 50.066406 C 222.550781 49.683594 221.929688 49.195312 221.464844 48.609375 C 221 48.019531 220.671875 47.367188 220.480469 46.640625 C 220.289062 45.917969 220.191406 45.226562 220.191406 44.570312 C 220.191406 43.859375 220.335938 43.238281 220.625 42.707031 C 220.910156 42.171875 221.257812 41.796875 221.667969 41.578125 C 222.378906 39.527344 223.078125 37.5 223.761719 35.488281 C 224.445312 33.480469 224.894531 31.464844 225.113281 29.441406 Z M 228.3125 44.695312 C 228.3125 43.847656 228.265625 43.09375 228.167969 42.4375 C 228.070312 41.78125 227.929688 41.058594 227.738281 40.265625 C 227.546875 39.472656 227.308594 38.507812 227.019531 37.375 C 226.734375 36.242188 226.398438 34.785156 226.015625 33.007812 C 225.851562 34.539062 225.515625 36 225.011719 37.394531 C 224.503906 38.789062 224.046875 40.222656 223.636719 41.699219 C 223.882812 41.863281 224.09375 42.089844 224.273438 42.378906 C 224.449219 42.664062 224.539062 43.039062 224.539062 43.503906 C 224.539062 44.023438 224.402344 44.421875 224.128906 44.695312 C 223.855469 44.96875 223.554688 45.105469 223.226562 45.105469 C 222.789062 45.105469 222.421875 44.914062 222.121094 44.53125 C 222.339844 45.484375 222.722656 46.230469 223.269531 46.765625 C 223.816406 47.296875 224.539062 47.5625 225.441406 47.5625 C 226.316406 47.5625 227.011719 47.339844 227.53125 46.886719 C 228.050781 46.4375 228.3125 45.703125 228.3125 44.695312 Z M 228.3125 44.695312 "/>
<path style=" stroke:none;fill-rule:evenodd;fill:rgb(0%,37.254902%,52.156863%);fill-opacity:1;" d="M 257.132812 20.257812 L 257.132812 49.574219 C 258.007812 49.765625 258.863281 50.066406 259.695312 50.472656 C 260.53125 50.882812 261.386719 51.292969 262.257812 51.703125 C 263.132812 52.113281 264.058594 52.46875 265.027344 52.769531 C 265.996094 53.070312 267.054688 53.222656 268.203125 53.222656 C 269.160156 53.222656 270.214844 52.949219 271.359375 52.402344 C 271.441406 52.785156 271.484375 53.152344 271.484375 53.507812 C 271.484375 54.082031 271.382812 54.621094 271.175781 55.128906 C 270.972656 55.632812 270.671875 56.078125 270.273438 56.460938 C 269.878906 56.84375 269.398438 57.152344 268.839844 57.382812 C 268.28125 57.617188 267.65625 57.730469 266.972656 57.730469 C 265.90625 57.730469 264.855469 57.398438 263.816406 56.726562 C 262.777344 56.058594 261.726562 55.320312 260.660156 54.511719 C 259.59375 53.707031 258.480469 52.96875 257.320312 52.300781 C 256.15625 51.628906 254.921875 51.292969 253.609375 51.292969 C 253.445312 51.292969 253.285156 51.292969 253.136719 51.292969 C 252.988281 51.292969 252.828125 51.308594 252.664062 51.335938 L 252.664062 22.472656 C 250.835938 22.992188 249.386719 23.878906 248.320312 25.136719 C 247.253906 26.394531 246.71875 27.964844 246.71875 29.851562 C 246.71875 30.589844 246.773438 31.210938 246.882812 31.71875 C 246.992188 32.222656 247.128906 32.660156 247.292969 33.027344 C 247.457031 33.398438 247.65625 33.710938 247.890625 33.972656 C 248.121094 34.230469 248.359375 34.472656 248.605469 34.691406 C 246.964844 34.691406 245.667969 34.3125 244.710938 33.5625 C 243.753906 32.808594 243.277344 31.53125 243.277344 29.730469 C 243.277344 28.417969 243.617188 27.179688 244.300781 26.019531 C 244.984375 24.855469 245.894531 23.832031 247.027344 22.941406 C 248.160156 22.054688 249.460938 21.351562 250.921875 20.832031 C 252.386719 20.3125 253.894531 20.050781 255.453125 20.050781 C 255.753906 20.050781 256.046875 20.058594 256.335938 20.074219 C 256.621094 20.085938 256.902344 20.105469 257.175781 20.132812 Z M 257.132812 20.257812 "/>
<path style=" stroke:none;fill-rule:evenodd;fill:rgb(0%,37.254902%,52.156863%);fill-opacity:1;" d="M 267.136719 29.894531 L 267.136719 43.832031 C 267.136719 44.105469 267.152344 44.449219 267.179688 44.859375 C 267.207031 45.269531 267.28125 45.671875 267.40625 46.066406 C 267.527344 46.464844 267.710938 46.804688 267.957031 47.09375 C 268.203125 47.378906 268.546875 47.523438 268.984375 47.523438 C 270.324219 47.523438 271.308594 46.03125 271.933594 43.054688 L 273.453125 43.054688 C 273.152344 44.777344 272.769531 46.136719 272.304688 47.132812 C 271.839844 48.128906 271.347656 48.890625 270.828125 49.410156 C 270.308594 49.929688 269.777344 50.261719 269.230469 50.414062 C 268.683594 50.5625 268.191406 50.636719 267.753906 50.636719 C 266.796875 50.636719 266.019531 50.453125 265.414062 50.085938 C 264.816406 49.714844 264.335938 49.246094 263.980469 48.671875 C 263.625 48.097656 263.378906 47.453125 263.242188 46.742188 C 263.105469 46.03125 263.039062 45.347656 263.039062 44.695312 L 263.039062 29.894531 Z M 262.300781 23.988281 C 262.300781 23.25 262.558594 22.609375 263.078125 22.0625 C 263.597656 21.515625 264.242188 21.242188 265.007812 21.242188 C 265.742188 21.242188 266.386719 21.515625 266.933594 22.0625 C 267.480469 22.609375 267.753906 23.25 267.753906 23.988281 C 267.753906 24.753906 267.480469 25.394531 266.933594 25.914062 C 266.386719 26.433594 265.742188 26.695312 265.007812 26.695312 C 264.242188 26.695312 263.597656 26.433594 263.078125 25.914062 C 262.558594 25.394531 262.300781 24.753906 262.300781 23.988281 Z M 262.300781 23.988281 "/>
<path style=" stroke:none;fill-rule:evenodd;fill:rgb(0%,37.254902%,52.156863%);fill-opacity:1;" d="M 275.992188 29.894531 L 279.316406 29.894531 L 279.316406 31.328125 L 275.992188 31.328125 L 275.992188 53.671875 C 275.992188 55.121094 275.851562 56.296875 275.5625 57.199219 C 275.277344 58.101562 274.902344 58.8125 274.4375 59.332031 C 273.972656 59.851562 273.433594 60.199219 272.816406 60.375 C 272.203125 60.554688 271.554688 60.644531 270.867188 60.644531 C 269.394531 60.644531 268.308594 60.300781 267.609375 59.617188 C 266.914062 58.933594 266.5625 57.949219 266.5625 56.664062 C 266.5625 55.980469 266.722656 55.355469 267.035156 54.78125 C 267.351562 54.207031 267.761719 53.679688 268.265625 53.199219 C 268.773438 52.722656 269.339844 52.300781 269.96875 51.929688 C 270.597656 51.5625 271.238281 51.238281 271.894531 50.964844 L 271.894531 26.777344 C 271.894531 24.398438 272.453125 22.613281 273.574219 21.425781 C 274.695312 20.238281 276.132812 19.644531 277.878906 19.644531 C 278.699219 19.644531 279.453125 19.765625 280.136719 20.011719 C 280.820312 20.257812 281.421875 20.640625 281.9375 21.160156 C 282.460938 21.679688 282.863281 22.320312 283.148438 23.085938 C 283.4375 23.851562 283.578125 24.753906 283.578125 25.792969 L 281.980469 25.792969 C 281.816406 24.699219 281.523438 23.839844 281.097656 23.210938 C 280.675781 22.582031 279.972656 22.265625 278.988281 22.265625 C 278.332031 22.265625 277.8125 22.410156 277.429688 22.695312 C 277.046875 22.984375 276.746094 23.375 276.527344 23.867188 C 276.308594 24.359375 276.164062 24.953125 276.097656 25.648438 C 276.027344 26.347656 275.992188 27.105469 275.992188 27.925781 Z M 270.050781 58.511719 C 270.84375 58.511719 271.347656 58.085938 271.566406 57.238281 C 271.785156 56.390625 271.894531 55.230469 271.894531 53.753906 L 271.894531 52.484375 C 270.664062 53.085938 269.734375 53.742188 269.105469 54.453125 C 268.476562 55.164062 268.164062 55.859375 268.164062 56.542969 C 268.164062 57.089844 268.339844 57.554688 268.695312 57.9375 C 269.050781 58.320312 269.503906 58.511719 270.050781 58.511719 Z M 270.050781 58.511719 "/>
<path style=" stroke:none;fill-rule:evenodd;fill:rgb(0%,37.254902%,52.156863%);fill-opacity:1;" d="M 294.527344 35.019531 C 294.527344 36.929688 293.742188 38.53125 292.167969 39.816406 C 290.597656 41.097656 288.417969 41.890625 285.628906 42.191406 C 285.738281 43.285156 285.9375 44.175781 286.222656 44.859375 C 286.511719 45.539062 286.859375 46.082031 287.269531 46.476562 C 287.679688 46.875 288.152344 47.148438 288.683594 47.296875 C 289.21875 47.449219 289.769531 47.523438 290.34375 47.523438 C 291.21875 47.523438 292.046875 47.371094 292.824219 47.070312 C 293.605469 46.769531 294.253906 46.25 294.773438 45.511719 C 294.800781 45.703125 294.820312 45.890625 294.835938 46.066406 C 294.847656 46.246094 294.855469 46.402344 294.855469 46.539062 C 294.855469 47.167969 294.695312 47.726562 294.382812 48.21875 C 294.070312 48.710938 293.644531 49.140625 293.113281 49.511719 C 292.578125 49.878906 291.964844 50.160156 291.265625 50.351562 C 290.570312 50.542969 289.839844 50.636719 289.074219 50.636719 C 288.144531 50.636719 287.214844 50.46875 286.285156 50.125 C 285.355469 49.785156 284.515625 49.238281 283.765625 48.484375 C 283.011719 47.734375 282.402344 46.757812 281.9375 45.554688 C 281.476562 44.351562 281.242188 42.890625 281.242188 41.167969 C 281.242188 40.019531 281.371094 38.777344 281.632812 37.4375 C 281.890625 36.097656 282.328125 34.855469 282.945312 33.707031 C 283.558594 32.558594 284.363281 31.601562 285.363281 30.835938 C 286.359375 30.070312 287.597656 29.6875 289.074219 29.6875 C 289.757812 29.6875 290.421875 29.761719 291.0625 29.914062 C 291.703125 30.0625 292.285156 30.335938 292.804688 30.734375 C 293.324219 31.128906 293.742188 31.667969 294.054688 32.351562 C 294.367188 33.035156 294.527344 33.925781 294.527344 35.019531 Z M 285.589844 40.59375 C 287.527344 40.292969 289.066406 39.609375 290.199219 38.542969 C 291.335938 37.476562 291.902344 36.164062 291.902344 34.609375 C 291.902344 33.570312 291.726562 32.824219 291.367188 32.375 C 291.015625 31.921875 290.507812 31.695312 289.851562 31.695312 C 289.140625 31.695312 288.519531 31.96875 287.988281 32.515625 C 287.453125 33.0625 287.011719 33.765625 286.652344 34.628906 C 286.300781 35.488281 286.03125 36.445312 285.855469 37.5 C 285.675781 38.550781 285.589844 39.582031 285.589844 40.59375 Z M 285.589844 40.59375 "/>
</g>
</svg>
