<svg xmlns="http://www.w3.org/2000/svg" width="52" height="52" viewBox="-10 -10 52 52">
  <g id="Layer 1" vectornator:layerName="Layer 1">
  <g opacity="1">
  <path d="M25.24+36.62L29.884+12.68L32.548+12.68L37.696+36.62L42.34+12.68L44.392+12.68L38.704+39.5L34.708+39.5L30.388+19.988L26.248+39.5L22.252+39.5L16.528+14.552C15.616+14.552+14.848+14.714+14.224+15.038C13.6+15.362+13.096+15.794+12.712+16.334C12.328+16.874+12.046+17.486+11.866+18.17C11.686+18.854+11.596+19.556+11.596+20.276C11.596+21.308+11.74+22.232+12.028+23.048C12.316+23.864+12.736+24.62+13.288+25.316C12.808+25.316+12.328+25.244+11.848+25.1C11.368+24.956+10.936+24.704+10.552+24.344C10.168+23.984+9.856+23.498+9.616+22.886C9.376+22.274+9.256+21.5+9.256+20.564C9.256+19.484+9.46+18.452+9.868+17.468C10.276+16.484+10.876+15.626+11.668+14.894C12.46+14.162+13.432+13.58+14.584+13.148C15.736+12.716+17.056+12.5+18.544+12.5C18.808+12.5+19.066+12.512+19.318+12.536C19.57+12.56+19.828+12.596+20.092+12.644L25.24+36.62Z" opacity="1" fill="#005f85"/>
  </g>
  </g>
</svg>
