<?xml version="1.0" encoding="UTF-8" standalone="no"?>
<svg
   xmlns:vectornator="http://vectornator.io"
   xmlns:dc="http://purl.org/dc/elements/1.1/"
   xmlns:cc="http://creativecommons.org/ns#"
   xmlns:rdf="http://www.w3.org/1999/02/22-rdf-syntax-ns#"
   xmlns:svg="http://www.w3.org/2000/svg"
   xmlns="http://www.w3.org/2000/svg"
   xmlns:sodipodi="http://sodipodi.sourceforge.net/DTD/sodipodi-0.dtd"
   xmlns:inkscape="http://www.inkscape.org/namespaces/inkscape"
   inkscape:version="1.0beta2 (2b71d25, 2019-12-03)"
   sodipodi:docname="w4.svg"
   id="svg19"
   viewBox="0 0 53 53"
   version="1.1"
   xml:space="preserve"
   style="fill-rule:evenodd;clip-rule:evenodd;stroke-linecap:round;stroke-linejoin:round;"><sodipodi:namedview
   inkscape:current-layer="svg19"
   inkscape:window-maximized="0"
   inkscape:window-y="23"
   inkscape:window-x="0"
   inkscape:cy="26.5"
   inkscape:cx="26.5"
   inkscape:zoom="16.396226"
   showgrid="false"
   id="namedview21"
   inkscape:window-height="480"
   inkscape:window-width="670"
   inkscape:pageshadow="2"
   inkscape:pageopacity="0"
   guidetolerance="10"
   gridtolerance="10"
   objecttolerance="10"
   borderopacity="1"
   inkscape:document-rotation="0"
   bordercolor="#666666"
   pagecolor="#ffffff" />
<metadata
   id="metadata10">
<vectornator:setting
   value="0"
   key="DisplayWhiteBackground" />
<vectornator:setting
   value="1"
   key="RulersVisible" />
<vectornator:setting
   value="0"
   key="SnapToEdges" />
<vectornator:setting
   value="Pixels"
   key="Units" />
<vectornator:setting
   value="0"
   key="DynamicGuides" />
<vectornator:setting
   value="0"
   key="SnapToPoints" />
<vectornator:setting
   value="0"
   key="CMYKEnabledKey" />
<vectornator:setting
   value="0"
   key="SnapToGrid" />
<vectornator:setting
   value="1"
   key="SnapToGuides" />
<vectornator:setting
   value="36"
   key="GridSpacing" />
<rdf:RDF><cc:Work
     rdf:about=""><dc:format>image/svg+xml</dc:format><dc:type
       rdf:resource="http://purl.org/dc/dcmitype/StillImage" /><dc:title></dc:title></cc:Work></rdf:RDF></metadata>
<defs
   id="defs12" />
<g
   vectornator:layerName="Layer 1"
   id="Layer 1">
<g
   id="g16"
   opacity="1">
<path
   id="path14"
   fill="#005f85"
   opacity="1"
   d="M25.24+36.62L29.884+12.68L32.548+12.68L37.696+36.62L42.34+12.68L44.392+12.68L38.704+39.5L34.708+39.5L30.388+19.988L26.248+39.5L22.252+39.5L16.528+14.552C15.616+14.552+14.848+14.714+14.224+15.038C13.6+15.362+13.096+15.794+12.712+16.334C12.328+16.874+12.046+17.486+11.866+18.17C11.686+18.854+11.596+19.556+11.596+20.276C11.596+21.308+11.74+22.232+12.028+23.048C12.316+23.864+12.736+24.62+13.288+25.316C12.808+25.316+12.328+25.244+11.848+25.1C11.368+24.956+10.936+24.704+10.552+24.344C10.168+23.984+9.856+23.498+9.616+22.886C9.376+22.274+9.256+21.5+9.256+20.564C9.256+19.484+9.46+18.452+9.868+17.468C10.276+16.484+10.876+15.626+11.668+14.894C12.46+14.162+13.432+13.58+14.584+13.148C15.736+12.716+17.056+12.5+18.544+12.5C18.808+12.5+19.066+12.512+19.318+12.536C19.57+12.56+19.828+12.596+20.092+12.644L25.24+36.62Z" />
</g>
</g>
</svg>
