<?xml version="1.0" encoding="UTF-8"?>
<svg xmlns="http://www.w3.org/2000/svg" xmlns:xlink="http://www.w3.org/1999/xlink" width="50pt" height="50pt" viewBox="0 0 50 50" version="1.1">
<g id="surface1">
<path style=" stroke:none;fill-rule:evenodd;fill:rgb(0%,37.254902%,52.156863%);fill-opacity:1;" d="M 23.8125 34.546875 L 28.191406 11.960938 L 30.707031 11.960938 L 35.5625 34.546875 L 39.945312 11.960938 L 41.878906 11.960938 L 36.511719 37.265625 L 32.742188 37.265625 L 28.667969 18.855469 L 24.761719 37.265625 L 20.992188 37.265625 L 15.59375 13.726562 C 14.730469 13.726562 14.007812 13.882812 13.417969 14.1875 C 12.832031 14.492188 12.355469 14.898438 11.992188 15.410156 C 11.628906 15.917969 11.363281 16.496094 11.195312 17.140625 C 11.023438 17.785156 10.941406 18.449219 10.941406 19.128906 C 10.941406 20.101562 11.074219 20.972656 11.347656 21.742188 C 11.617188 22.511719 12.015625 23.226562 12.535156 23.882812 C 12.082031 23.882812 11.628906 23.816406 11.175781 23.679688 C 10.722656 23.542969 10.316406 23.304688 9.953125 22.964844 C 9.59375 22.625 9.296875 22.167969 9.070312 21.589844 C 8.84375 21.011719 8.730469 20.28125 8.730469 19.398438 C 8.730469 18.382812 8.925781 17.40625 9.308594 16.480469 C 9.695312 15.550781 10.261719 14.742188 11.007812 14.050781 C 11.753906 13.359375 12.671875 12.8125 13.757812 12.402344 C 14.84375 11.996094 16.089844 11.792969 17.496094 11.792969 C 17.742188 11.792969 17.988281 11.804688 18.222656 11.828125 C 18.460938 11.847656 18.707031 11.882812 18.953125 11.929688 Z M 23.8125 34.546875 "/>
</g>
</svg>
