<?xml version="1.0" encoding="UTF-8" standalone="no"?> <!-- Created with Vectornator for iOS (http://vectornator.io/) --><!DOCTYPE svg PUBLIC "-//W3C//DTD SVG 1.1//EN" "http://www.w3.org/Graphics/SVG/1.1/DTD/svg11.dtd">
<svg style="fill-rule:evenodd;clip-rule:evenodd;stroke-linecap:round;stroke-linejoin:round;" xmlns:vectornator="http://vectornator.io" xmlns:xlink="http://www.w3.org/1999/xlink" xmlns="http://www.w3.org/2000/svg" xml:space="preserve" version="1.1" viewBox="0 0 244 57">
<metadata>
<vectornator:setting key="DisplayWhiteBackground" value="0"/>
<vectornator:setting key="RulersVisible" value="1"/>
<vectornator:setting key="SnapToEdges" value="0"/>
<vectornator:setting key="Units" value="Pixels"/>
<vectornator:setting key="DynamicGuides" value="0"/>
<vectornator:setting key="SnapToPoints" value="0"/>
<vectornator:setting key="SnapToGrid" value="0"/>
<vectornator:setting key="SnapToGuides" value="1"/>
<vectornator:setting key="GridSpacing" value="36"/>
</metadata>
<defs/>
<g id="Layer 1" vectornator:layerName="Layer 1">
<g opacity="1">
<path d="M19.898+33.8344L24.155+11.8894L26.597+11.8894L31.316+33.8344L35.573+11.8894L37.454+11.8894L32.24+36.4744L28.577+36.4744L24.617+18.5884L20.822+36.4744L17.159+36.4744L11.912+13.6054C11.076+13.6054+10.372+13.7539+9.8+14.0509C9.228+14.3479+8.766+14.7439+8.414+15.2389C8.062+15.7339+7.8035+16.2949+7.6385+16.9219C7.4735+17.5489+7.391+18.1924+7.391+18.8524C7.391+19.7984+7.523+20.6454+7.787+21.3934C8.051+22.1414+8.436+22.8344+8.942+23.4724C8.502+23.4724+8.062+23.4064+7.622+23.2744C7.182+23.1424+6.786+22.9114+6.434+22.5814C6.082+22.2514+5.796+21.8059+5.576+21.2449C5.356+20.6839+5.246+19.9744+5.246+19.1164C5.246+18.1264+5.433+17.1804+5.807+16.2784C6.181+15.3764+6.731+14.5899+7.457+13.9189C8.183+13.2479+9.074+12.7144+10.13+12.3184C11.186+11.9224+12.396+11.7244+13.76+11.7244C14.002+11.7244+14.2385+11.7354+14.4695+11.7574C14.7005+11.7794+14.937+11.8124+15.179+11.8564L19.898+33.8344Z" opacity="1" fill="#005f85"/>
<path d="M50.093+19.9744L50.093+31.1944C50.093+31.4144+50.104+31.6894+50.126+32.0194C50.148+32.3494+50.2085+32.6739+50.3075+32.9929C50.4065+33.3119+50.555+33.5869+50.753+33.8179C50.951+34.0489+51.226+34.1644+51.578+34.1644C52.656+34.1644+53.448+32.9654+53.954+30.5674L55.175+30.5674C54.933+31.9534+54.625+33.0479+54.251+33.8509C53.877+34.6539+53.481+35.2644+53.063+35.6824C52.645+36.1004+52.216+36.3699+51.776+36.4909C51.336+36.6119+50.94+36.6724+50.588+36.6724C50.082+36.6724+49.6475+36.5844+49.2845+36.4084C48.9215+36.2324+48.6135+36.0014+48.3605+35.7154C48.1075+35.4294+47.904+35.0994+47.75+34.7254C47.596+34.3514+47.475+33.9554+47.387+33.5374C47.057+34.3954+46.5235+35.1324+45.7865+35.7484C45.0495+36.3644+44.153+36.6724+43.097+36.6724C42.437+36.6724+41.7715+36.5404+41.1005+36.2764C40.4295+36.0124+39.8245+35.5779+39.2855+34.9729C38.7465+34.3679+38.3065+33.5869+37.9655+32.6299C37.6245+31.6729+37.454+30.5014+37.454+29.1154C37.454+28.1034+37.5695+27.0474+37.8005+25.9474C38.0315+24.8474+38.4+23.8464+38.906+22.9444C39.412+22.0424+40.061+21.2944+40.853+20.7004C41.645+20.1064+42.602+19.8094+43.724+19.8094C43.988+19.8094+44.2685+19.8369+44.5655+19.8919C44.8625+19.9469+45.1485+20.0404+45.4235+20.1724C45.6985+20.3044+45.957+20.4859+46.199+20.7169C46.441+20.9479+46.639+21.2284+46.793+21.5584L46.793+19.9744L50.093+19.9744ZM43.922+34.1644C44.252+34.1644+44.5875+34.0709+44.9285+33.8839C45.2695+33.6969+45.5775+33.4439+45.8525+33.1249C46.1275+32.8059+46.353+32.4264+46.529+31.9864C46.705+31.5464+46.793+31.0734+46.793+30.5674L46.793+23.0434C46.639+22.6914+46.4025+22.3669+46.0835+22.0699C45.7645+21.7729+45.352+21.6244+44.846+21.6244C44.142+21.6244+43.537+21.8609+43.031+22.3339C42.525+22.8069+42.118+23.4009+41.81+24.1159C41.502+24.8309+41.2765+25.6119+41.1335+26.4589C40.9905+27.3059+40.919+28.1144+40.919+28.8844C40.919+30.7764+41.1775+32.1294+41.6945+32.9434C42.2115+33.7574+42.954+34.1644+43.922+34.1644Z" opacity="1" fill="#005f85"/>
<path d="M57.221+19.9744L57.221+22.4824C57.551+21.8884+57.8865+21.4099+58.2275+21.0469C58.5685+20.6839+58.915+20.4144+59.267+20.2384C59.619+20.0624+59.9545+19.9469+60.2735+19.8919C60.5925+19.8369+60.895+19.8094+61.181+19.8094C62.171+19.8094+62.9685+19.9964+63.5735+20.3704C64.1785+20.7444+64.635+21.2229+64.943+21.8059C65.251+22.3889+65.4545+23.0269+65.5535+23.7199C65.6525+24.4129+65.702+25.0784+65.702+25.7164C65.702+26.1124+65.691+26.5469+65.669+27.0199C65.647+27.4929+65.625+27.9769+65.603+28.4719C65.581+28.9669+65.559+29.4619+65.537+29.9569C65.515+30.4519+65.504+30.9084+65.504+31.3264C65.504+31.5024+65.515+31.7499+65.537+32.0689C65.559+32.3879+65.614+32.7014+65.702+33.0094C65.79+33.3174+65.933+33.5869+66.131+33.8179C66.329+34.0489+66.615+34.1644+66.989+34.1644C67.495+34.1644+67.9515+33.8784+68.3585+33.3064C68.7655+32.7344+69.101+31.8214+69.365+30.5674L70.586+30.5674C70.344+31.9534+70.036+33.0479+69.662+33.8509C69.288+34.6539+68.892+35.2644+68.474+35.6824C68.056+36.1004+67.638+36.3699+67.22+36.4909C66.802+36.6119+66.417+36.6724+66.065+36.6724C65.361+36.6724+64.767+36.5349+64.283+36.2599C63.799+35.9849+63.403+35.6164+63.095+35.1544C62.787+34.6924+62.5615+34.1534+62.4185+33.5374C62.2755+32.9214+62.204+32.2834+62.204+31.6234C62.204+31.4254+62.2095+31.0569+62.2205+30.5179C62.2315+29.9789+62.2425+29.4014+62.2535+28.7854C62.2645+28.1694+62.2755+27.5864+62.2865+27.0364C62.2975+26.4864+62.303+26.1014+62.303+25.8814C62.303+25.1774+62.248+24.5944+62.138+24.1324C62.028+23.6704+61.874+23.3074+61.676+23.0434C61.478+22.7794+61.2525+22.5924+60.9995+22.4824C60.7465+22.3724+60.477+22.3174+60.191+22.3174C59.509+22.3174+58.9205+22.5924+58.4255+23.1424C57.9305+23.6924+57.529+24.6164+57.221+25.9144L57.221+36.4744L53.921+36.4744L53.921+19.9744L57.221+19.9744Z" opacity="1" fill="#005f85"/>
<path d="M81.509+13.3744L81.509+31.1944C81.509+31.4144+81.52+31.6894+81.542+32.0194C81.564+32.3494+81.6245+32.6739+81.7235+32.9929C81.8225+33.3119+81.971+33.5869+82.169+33.8179C82.367+34.0489+82.642+34.1644+82.994+34.1644C84.072+34.1644+84.864+32.9654+85.37+30.5674L86.591+30.5674C86.349+31.9534+86.041+33.0479+85.667+33.8509C85.293+34.6539+84.897+35.2644+84.479+35.6824C84.061+36.1004+83.632+36.3699+83.192+36.4909C82.752+36.6119+82.356+36.6724+82.004+36.6724C81.498+36.6724+81.0635+36.5844+80.7005+36.4084C80.3375+36.2324+80.0295+36.0014+79.7765+35.7154C79.5235+35.4294+79.32+35.0994+79.166+34.7254C79.012+34.3514+78.891+33.9554+78.803+33.5374C78.473+34.3954+77.9395+35.1324+77.2025+35.7484C76.4655+36.3644+75.569+36.6724+74.513+36.6724C73.853+36.6724+73.1875+36.5404+72.5165+36.2764C71.8455+36.0124+71.2405+35.5779+70.7015+34.9729C70.1625+34.3679+69.7225+33.5869+69.3815+32.6299C69.0405+31.6729+68.87+30.5014+68.87+29.1154C68.87+28.1034+68.9855+27.0474+69.2165+25.9474C69.4475+24.8474+69.816+23.8464+70.322+22.9444C70.828+22.0424+71.477+21.2944+72.269+20.7004C73.061+20.1064+74.018+19.8094+75.14+19.8094C75.404+19.8094+75.6845+19.8369+75.9815+19.8919C76.2785+19.9469+76.5645+20.0404+76.8395+20.1724C77.1145+20.3044+77.373+20.4859+77.615+20.7169C77.857+20.9479+78.055+21.2284+78.209+21.5584L78.209+13.8364L81.509+13.3744ZM75.338+34.1644C75.668+34.1644+76.0035+34.0709+76.3445+33.8839C76.6855+33.6969+76.9935+33.4439+77.2685+33.1249C77.5435+32.8059+77.769+32.4264+77.945+31.9864C78.121+31.5464+78.209+31.0734+78.209+30.5674L78.209+23.0434C78.055+22.6914+77.8185+22.3669+77.4995+22.0699C77.1805+21.7729+76.768+21.6244+76.262+21.6244C75.558+21.6244+74.953+21.8609+74.447+22.3339C73.941+22.8069+73.534+23.4009+73.226+24.1159C72.918+24.8309+72.6925+25.6119+72.5495+26.4589C72.4065+27.3059+72.335+28.1144+72.335+28.8844C72.335+30.7764+72.5935+32.1294+73.1105+32.9434C73.6275+33.7574+74.37+34.1644+75.338+34.1644Z" opacity="1" fill="#005f85"/>
<path d="M97.514+19.9744L97.514+31.1944C97.514+31.4584+97.525+31.7609+97.547+32.1019C97.569+32.4429+97.6295+32.7674+97.7285+33.0754C97.8275+33.3834+97.9815+33.6419+98.1905+33.8509C98.3995+34.0599+98.702+34.1644+99.098+34.1644C99.274+34.1644+99.4665+34.1424+99.6755+34.0984C99.8845+34.0544+100.055+34.0104+100.187+33.9664C100.209+34.0764+100.225+34.1754+100.237+34.2634C100.248+34.3514+100.253+34.4504+100.253+34.5604C100.253+35.2204+100+35.7374+99.494+36.1114C98.988+36.4854+98.416+36.6724+97.778+36.6724C97.096+36.6724+96.48+36.4359+95.93+35.9629C95.38+35.4899+95.006+34.6924+94.808+33.5704C94.478+34.4284+93.939+35.1599+93.191+35.7649C92.443+36.3699+91.541+36.6724+90.485+36.6724C89.825+36.6724+89.1595+36.5349+88.4885+36.2599C87.8175+35.9849+87.218+35.5504+86.69+34.9564C86.162+34.3624+85.7275+33.5924+85.3865+32.6464C85.0455+31.7004+84.875+30.5564+84.875+29.2144C84.875+28.1804+84.9905+27.1079+85.2215+25.9969C85.4525+24.8859+85.8155+23.8739+86.3105+22.9609C86.8055+22.0479+87.449+21.2944+88.241+20.7004C89.033+20.1064+89.979+19.8094+91.079+19.8094C91.651+19.8094+92.2395+19.9304+92.8445+20.1724C93.4495+20.4144+93.906+20.8764+94.214+21.5584L94.214+19.9744L97.514+19.9744ZM91.178+34.1644C91.596+34.1644+91.992+34.0654+92.366+33.8674C92.74+33.6694+93.0645+33.4054+93.3395+33.0754C93.6145+32.7454+93.829+32.3659+93.983+31.9369C94.137+31.5079+94.214+31.0514+94.214+30.5674L94.214+23.0434C94.06+22.6694+93.829+22.3394+93.521+22.0534C93.213+21.7674+92.773+21.6244+92.201+21.6244C91.497+21.6244+90.903+21.8609+90.419+22.3339C89.935+22.8069+89.539+23.4064+89.231+24.1324C88.923+24.8584+88.6975+25.6669+88.5545+26.5579C88.4115+27.4489+88.34+28.3014+88.34+29.1154C88.34+30.8974+88.615+32.1844+89.165+32.9764C89.715+33.7684+90.386+34.1644+91.178+34.1644Z" opacity="1" fill="#005f85"/>
<path d="M122.66+33.8344L126.917+11.8894L129.359+11.8894L134.078+33.8344L138.335+11.8894L140.216+11.8894L135.002+36.4744L131.339+36.4744L127.379+18.5884L123.584+36.4744L119.921+36.4744L114.674+13.6054C113.838+13.6054+113.134+13.7539+112.562+14.0509C111.99+14.3479+111.528+14.7439+111.176+15.2389C110.824+15.7339+110.566+16.2949+110.401+16.9219C110.235+17.5489+110.153+18.1924+110.153+18.8524C110.153+19.7984+110.285+20.6454+110.549+21.3934C110.813+22.1414+111.198+22.8344+111.704+23.4724C111.264+23.4724+110.824+23.4064+110.384+23.2744C109.944+23.1424+109.548+22.9114+109.196+22.5814C108.844+22.2514+108.558+21.8059+108.338+21.2449C108.118+20.6839+108.008+19.9744+108.008+19.1164C108.008+18.1264+108.195+17.1804+108.569+16.2784C108.943+15.3764+109.493+14.5899+110.219+13.9189C110.945+13.2479+111.836+12.7144+112.892+12.3184C113.948+11.9224+115.158+11.7244+116.522+11.7244C116.764+11.7244+117+11.7354+117.232+11.7574C117.463+11.7794+117.699+11.8124+117.941+11.8564L122.66+33.8344Z" opacity="1" fill="#005f85"/>
<path d="M144.374+19.9744L144.374+22.7464C144.638+22.3504+144.896+21.9764+145.15+21.6244C145.403+21.2724+145.683+20.9644+145.991+20.7004C146.299+20.4364+146.64+20.2219+147.014+20.0569C147.388+19.8919+147.806+19.8094+148.268+19.8094C149.016+19.8094+149.566+20.0019+149.918+20.3869C150.27+20.7719+150.446+21.2394+150.446+21.7894C150.446+22.1194+150.391+22.3944+150.281+22.6144C150.171+22.8344+150.039+23.0104+149.885+23.1424C149.731+23.2744+149.566+23.3679+149.39+23.4229C149.214+23.4779+149.06+23.5054+148.928+23.5054C148.73+23.5054+148.571+23.4614+148.45+23.3734C148.328+23.2854+148.208+23.1919+148.087+23.0929C147.965+22.9939+147.828+22.9004+147.674+22.8124C147.52+22.7244+147.322+22.6804+147.08+22.6804C146.574+22.6804+146.09+22.8564+145.628+23.2084C145.166+23.5604+144.748+23.9344+144.374+24.3304L144.374+36.4744L141.074+36.4744L141.074+19.9744L144.374+19.9744Z" opacity="1" fill="#005f85"/>
<path d="M155.495+19.9744L155.495+31.1944C155.495+31.4144+155.506+31.6894+155.528+32.0194C155.55+32.3494+155.61+32.6739+155.71+32.9929C155.809+33.3119+155.957+33.5869+156.155+33.8179C156.353+34.0489+156.628+34.1644+156.98+34.1644C158.058+34.1644+158.85+32.9654+159.356+30.5674L160.577+30.5674C160.335+31.9534+160.027+33.0479+159.653+33.8509C159.279+34.6539+158.883+35.2644+158.465+35.6824C158.047+36.1004+157.618+36.3699+157.178+36.4909C156.738+36.6119+156.342+36.6724+155.99+36.6724C155.22+36.6724+154.593+36.5239+154.109+36.2269C153.625+35.9299+153.24+35.5504+152.954+35.0884C152.668+34.6264+152.47+34.1094+152.36+33.5374C152.25+32.9654+152.195+32.4154+152.195+31.8874L152.195+19.9744L155.495+19.9744ZM151.601+15.2224C151.601+14.6284+151.81+14.1114+152.228+13.6714C152.646+13.2314+153.163+13.0114+153.779+13.0114C154.373+13.0114+154.89+13.2314+155.33+13.6714C155.77+14.1114+155.99+14.6284+155.99+15.2224C155.99+15.8384+155.77+16.3554+155.33+16.7734C154.89+17.1914+154.373+17.4004+153.779+17.4004C153.163+17.4004+152.646+17.1914+152.228+16.7734C151.81+16.3554+151.601+15.8384+151.601+15.2224Z" opacity="1" fill="#005f85"/>
<path d="M162.656+14.9584L162.656+19.9744L165.197+19.9744L165.197+21.1294L162.656+21.1294L162.656+31.1944C162.656+31.4584+162.667+31.7609+162.689+32.1019C162.711+32.4429+162.771+32.7674+162.871+33.0754C162.97+33.3834+163.123+33.6419+163.333+33.8509C163.542+34.0599+163.833+34.1644+164.207+34.1644C164.801+34.1644+165.367+33.8674+165.907+33.2734C166.446+32.6794+166.869+31.7774+167.177+30.5674L168.398+30.5674C168.024+31.9534+167.623+33.0479+167.194+33.8509C166.764+34.6539+166.319+35.2644+165.857+35.6824C165.395+36.1004+164.939+36.3699+164.488+36.4909C164.036+36.6119+163.624+36.6724+163.25+36.6724C162.458+36.6724+161.809+36.5239+161.303+36.2269C160.797+35.9299+160.401+35.5504+160.115+35.0884C159.829+34.6264+159.631+34.1149+159.521+33.5539C159.411+32.9929+159.356+32.4374+159.356+31.8874L159.356+21.1294L158.234+21.1294L158.234+19.9744L159.356+19.9744L159.356+15.4204L162.656+14.9584Z" opacity="1" fill="#005f85"/>
<path d="M177.44+24.0994C177.44+25.6394+176.808+26.9264+175.543+27.9604C174.277+28.9944+172.523+29.6324+170.279+29.8744C170.367+30.7544+170.526+31.4694+170.758+32.0194C170.989+32.5694+171.269+33.0039+171.599+33.3229C171.929+33.6419+172.308+33.8619+172.738+33.9829C173.167+34.1039+173.612+34.1644+174.074+34.1644C175.13+34.1644+176.12+33.8894+177.044+33.3394C177.968+32.7894+178.716+31.8654+179.288+30.5674L180.344+30.5674C180.058+31.3814+179.662+32.1569+179.156+32.8939C178.65+33.6309+178.056+34.2799+177.374+34.8409C176.692+35.4019+175.955+35.8474+175.163+36.1774C174.371+36.5074+173.557+36.6724+172.721+36.6724C171.951+36.6724+171.209+36.5404+170.494+36.2764C169.778+36.0124+169.146+35.5779+168.596+34.9729C168.046+34.3679+167.601+33.5814+167.26+32.6134C166.918+31.6454+166.748+30.4574+166.748+29.0494C166.748+28.1254+166.852+27.1244+167.062+26.0464C167.271+24.9684+167.622+23.9674+168.118+23.0434C168.613+22.1194+169.261+21.3494+170.065+20.7334C170.868+20.1174+171.863+19.8094+173.051+19.8094C173.601+19.8094+174.134+19.8699+174.652+19.9909C175.169+20.1119+175.636+20.3319+176.054+20.6509C176.472+20.9699+176.807+21.4044+177.061+21.9544C177.314+22.5044+177.44+23.2194+177.44+24.0994ZM170.246+28.5874C171.808+28.3454+173.045+27.7954+173.959+26.9374C174.872+26.0794+175.328+25.0234+175.328+23.7694C175.328+22.9334+175.185+22.3339+174.899+21.9709C174.613+21.6079+174.206+21.4264+173.678+21.4264C173.106+21.4264+172.606+21.6464+172.177+22.0864C171.747+22.5264+171.39+23.0929+171.104+23.7859C170.818+24.4789+170.604+25.2489+170.461+26.0959C170.317+26.9429+170.246+27.7734+170.246+28.5874Z" opacity="1" fill="#005f85"/>
<path d="M185.822+18.9514C186.35+21.0634+186.79+22.7849+187.142+24.1159C187.494+25.4469+187.774+26.5689+187.984+27.4819C188.193+28.3949+188.341+29.2034+188.429+29.9074C188.517+30.6114+188.561+31.3924+188.561+32.2504C188.561+33.0644+188.385+33.7519+188.033+34.3129C187.681+34.8739+187.241+35.3304+186.713+35.6824C186.185+36.0344+185.624+36.2874+185.03+36.4414C184.436+36.5954+183.908+36.6724+183.446+36.6724C182.478+36.6724+181.681+36.5184+181.054+36.2104C180.426+35.9024+179.926+35.5119+179.552+35.0389C179.178+34.5659+178.914+34.0379+178.76+33.4549C178.606+32.8719+178.529+32.3164+178.529+31.7884C178.529+31.2164+178.644+30.7159+178.876+30.2869C179.107+29.8579+179.387+29.5554+179.717+29.3794C180.289+27.7294+180.85+26.0959+181.4+24.4789C181.95+22.8619+182.313+21.2394+182.489+19.6114L185.822+18.9514ZM185.063+31.8874C185.063+31.2054+185.025+30.6004+184.948+30.0724C184.87+29.5444+184.755+28.9614+184.601+28.3234C184.447+27.6854+184.255+26.9099+184.024+25.9969C183.792+25.0839+183.523+23.9124+183.215+22.4824C183.083+23.7144+182.814+24.8914+182.407+26.0134C181.999+27.1354+181.631+28.2904+181.301+29.4784C181.499+29.6104+181.669+29.7919+181.813+30.0229C181.956+30.2539+182.027+30.5564+182.027+30.9304C182.027+31.3484+181.917+31.6674+181.697+31.8874C181.477+32.1074+181.235+32.2174+180.971+32.2174C180.619+32.2174+180.322+32.0634+180.08+31.7554C180.256+32.5254+180.564+33.1249+181.004+33.5539C181.444+33.9829+182.027+34.1974+182.753+34.1974C183.457+34.1974+184.018+34.0159+184.436+33.6529C184.854+33.2899+185.063+32.7014+185.063+31.8874Z" opacity="1" fill="#005f85"/>
<path d="M208.262+12.2194L208.262+35.8144C208.966+35.9684+209.653+36.2104+210.325+36.5404C210.996+36.8704+211.683+37.2004+212.387+37.5304C213.091+37.8604+213.833+38.1464+214.615+38.3884C215.396+38.6304+216.248+38.7514+217.172+38.7514C217.942+38.7514+218.789+38.5314+219.713+38.0914C219.779+38.3994+219.812+38.6964+219.812+38.9824C219.812+39.4444+219.73+39.8789+219.565+40.2859C219.399+40.6929+219.158+41.0504+218.839+41.3584C218.519+41.6664+218.135+41.9139+217.684+42.1009C217.232+42.2879+216.732+42.3814+216.182+42.3814C215.324+42.3814+214.477+42.1119+213.641+41.5729C212.805+41.0339+211.958+40.4399+211.1+39.7909C210.242+39.1419+209.346+38.5479+208.411+38.0089C207.475+37.4699+206.48+37.2004+205.424+37.2004C205.292+37.2004+205.166+37.2004+205.045+37.2004C204.923+37.2004+204.797+37.2114+204.665+37.2334L204.665+14.0014C203.191+14.4194+202.025+15.1344+201.167+16.1464C200.309+17.1584+199.88+18.4234+199.88+19.9414C199.88+20.5354+199.924+21.0359+200.012+21.4429C200.1+21.8499+200.21+22.2019+200.342+22.4989C200.474+22.7959+200.633+23.0489+200.821+23.2579C201.008+23.4669+201.2+23.6594+201.398+23.8354C200.078+23.8354+199.033+23.5329+198.263+22.9279C197.493+22.3229+197.108+21.2944+197.108+19.8424C197.108+18.7864+197.383+17.7909+197.933+16.8559C198.483+15.9209+199.214+15.0959+200.128+14.3809C201.041+13.6659+202.085+13.0994+203.263+12.6814C204.44+12.2634+205.655+12.0544+206.909+12.0544C207.151+12.0544+207.387+12.0599+207.619+12.0709C207.85+12.0819+208.075+12.0984+208.295+12.1204L208.262+12.2194Z" opacity="1" fill="#005f85"/>
<path d="M216.314+19.9744L216.314+31.1944C216.314+31.4144+216.325+31.6894+216.347+32.0194C216.369+32.3494+216.429+32.6739+216.529+32.9929C216.628+33.3119+216.776+33.5869+216.974+33.8179C217.172+34.0489+217.447+34.1644+217.799+34.1644C218.877+34.1644+219.669+32.9654+220.175+30.5674L221.396+30.5674C221.154+31.9534+220.846+33.0479+220.472+33.8509C220.098+34.6539+219.702+35.2644+219.284+35.6824C218.866+36.1004+218.437+36.3699+217.997+36.4909C217.557+36.6119+217.161+36.6724+216.809+36.6724C216.039+36.6724+215.412+36.5239+214.928+36.2269C214.444+35.9299+214.059+35.5504+213.773+35.0884C213.487+34.6264+213.289+34.1094+213.179+33.5374C213.069+32.9654+213.014+32.4154+213.014+31.8874L213.014+19.9744L216.314+19.9744ZM212.42+15.2224C212.42+14.6284+212.629+14.1114+213.047+13.6714C213.465+13.2314+213.982+13.0114+214.598+13.0114C215.192+13.0114+215.709+13.2314+216.149+13.6714C216.589+14.1114+216.809+14.6284+216.809+15.2224C216.809+15.8384+216.589+16.3554+216.149+16.7734C215.709+17.1914+215.192+17.4004+214.598+17.4004C213.982+17.4004+213.465+17.1914+213.047+16.7734C212.629+16.3554+212.42+15.8384+212.42+15.2224Z" opacity="1" fill="#005f85"/>
<path d="M223.442+19.9744L226.115+19.9744L226.115+21.1294L223.442+21.1294L223.442+39.1144C223.442+40.2804+223.327+41.2264+223.096+41.9524C222.864+42.6784+222.562+43.2504+222.188+43.6684C221.814+44.0864+221.38+44.3669+220.885+44.5099C220.389+44.6529+219.867+44.7244+219.317+44.7244C218.129+44.7244+217.255+44.4494+216.694+43.8994C216.132+43.3494+215.852+42.5574+215.852+41.5234C215.852+40.9734+215.978+40.4674+216.232+40.0054C216.485+39.5434+216.814+39.1199+217.222+38.7349C217.629+38.3499+218.085+38.0089+218.591+37.7119C219.097+37.4149+219.614+37.1564+220.142+36.9364L220.142+17.4664C220.142+15.5524+220.593+14.1169+221.495+13.1599C222.397+12.2029+223.552+11.7244+224.96+11.7244C225.62+11.7244+226.225+11.8234+226.775+12.0214C227.325+12.2194+227.809+12.5274+228.227+12.9454C228.645+13.3634+228.969+13.8804+229.201+14.4964C229.432+15.1124+229.547+15.8384+229.547+16.6744L228.26+16.6744C228.128+15.7944+227.892+15.1014+227.551+14.5954C227.209+14.0894+226.643+13.8364+225.851+13.8364C225.323+13.8364+224.905+13.9519+224.597+14.1829C224.289+14.4139+224.047+14.7274+223.871+15.1234C223.695+15.5194+223.58+15.9979+223.525+16.5589C223.469+17.1199+223.442+17.7304+223.442+18.3904L223.442+19.9744ZM218.657+43.0084C219.295+43.0084+219.702+42.6674+219.878+41.9854C220.054+41.3034+220.142+40.3684+220.142+39.1804L220.142+38.1574C219.152+38.6414+218.404+39.1694+217.898+39.7414C217.392+40.3134+217.139+40.8744+217.139+41.4244C217.139+41.8644+217.282+42.2384+217.568+42.5464C217.854+42.8544+218.217+43.0084+218.657+43.0084Z" opacity="1" fill="#005f85"/>
<path d="M238.358+24.0994C238.358+25.6394+237.726+26.9264+236.461+27.9604C235.195+28.9944+233.441+29.6324+231.197+29.8744C231.285+30.7544+231.444+31.4694+231.676+32.0194C231.907+32.5694+232.187+33.0039+232.517+33.3229C232.847+33.6419+233.226+33.8619+233.656+33.9829C234.085+34.1039+234.53+34.1644+234.992+34.1644C235.696+34.1644+236.361+34.0434+236.989+33.8014C237.616+33.5594+238.138+33.1414+238.556+32.5474C238.578+32.7014+238.594+32.8499+238.606+32.9929C238.617+33.1359+238.622+33.2624+238.622+33.3724C238.622+33.8784+238.496+34.3294+238.243+34.7254C237.989+35.1214+237.649+35.4679+237.22+35.7649C236.79+36.0619+236.296+36.2874+235.735+36.4414C235.173+36.5954+234.585+36.6724+233.969+36.6724C233.221+36.6724+232.473+36.5349+231.725+36.2599C230.977+35.9849+230.301+35.5449+229.696+34.9399C229.09+34.3349+228.601+33.5484+228.227+32.5804C227.853+31.6124+227.666+30.4354+227.666+29.0494C227.666+28.1254+227.77+27.1244+227.98+26.0464C228.189+24.9684+228.54+23.9674+229.036+23.0434C229.531+22.1194+230.179+21.3494+230.983+20.7334C231.786+20.1174+232.781+19.8094+233.969+19.8094C234.519+19.8094+235.052+19.8699+235.57+19.9909C236.087+20.1119+236.554+20.3319+236.972+20.6509C237.39+20.9699+237.725+21.4044+237.979+21.9544C238.232+22.5044+238.358+23.2194+238.358+24.0994ZM231.164+28.5874C232.726+28.3454+233.963+27.7954+234.877+26.9374C235.79+26.0794+236.246+25.0234+236.246+23.7694C236.246+22.9334+236.103+22.3339+235.817+21.9709C235.531+21.6079+235.124+21.4264+234.596+21.4264C234.024+21.4264+233.524+21.6464+233.095+22.0864C232.665+22.5264+232.308+23.0929+232.022+23.7859C231.736+24.4789+231.522+25.2489+231.379+26.0959C231.235+26.9429+231.164+27.7734+231.164+28.5874Z" opacity="1" fill="#005f85"/>
</g>
</g>
</svg>
